<?xml version="1.0" encoding="UTF-8" standalone="no"?>
<!-- Created with Inkscape (http://www.inkscape.org/) -->

<svg
   width="1620.7234"
   height="911.65771"
   viewBox="0 0 428.81641 241.20942"
   version="1.1"
   id="svg8"
   inkscape:version="1.2.2 (b0a8486541, 2022-12-01)"
   sodipodi:docname="image.svg"
   inkscape:export-filename="pooch-logo.png"
   inkscape:export-xdpi="96"
   inkscape:export-ydpi="96"
   xmlns:inkscape="http://www.inkscape.org/namespaces/inkscape"
   xmlns:sodipodi="http://sodipodi.sourceforge.net/DTD/sodipodi-0.dtd"
   xmlns:xlink="http://www.w3.org/1999/xlink"
   xmlns="http://www.w3.org/2000/svg"
   xmlns:svg="http://www.w3.org/2000/svg"
   xmlns:rdf="http://www.w3.org/1999/02/22-rdf-syntax-ns#"
   xmlns:cc="http://creativecommons.org/ns#"
   xmlns:dc="http://purl.org/dc/elements/1.1/">
  <defs
     id="defs2">
    <rect
       x="-412.49023"
       y="-927.86621"
       width="806.48645"
       height="332.03928"
       id="rect9345" />
    <linearGradient
       id="linearGradient2795">
      <stop
         id="stop2797"
         offset="0"
         style="stop-color:#b8b8b8;stop-opacity:0.49803922;" />
      <stop
         id="stop2799"
         offset="1"
         style="stop-color:#7f7f7f;stop-opacity:0;" />
    </linearGradient>
    <linearGradient
       id="linearGradient2787">
      <stop
         id="stop2789"
         offset="0"
         style="stop-color:#7f7f7f;stop-opacity:0.5;" />
      <stop
         id="stop2791"
         offset="1"
         style="stop-color:#7f7f7f;stop-opacity:0;" />
    </linearGradient>
    <linearGradient
       id="linearGradient3676">
      <stop
         id="stop3678"
         offset="0"
         style="stop-color:#b2b2b2;stop-opacity:0.5;" />
      <stop
         id="stop3680"
         offset="1"
         style="stop-color:#b3b3b3;stop-opacity:0;" />
    </linearGradient>
    <linearGradient
       id="linearGradient3236">
      <stop
         id="stop3244"
         offset="0"
         style="stop-color:#f4f4f4;stop-opacity:1" />
      <stop
         id="stop3240"
         offset="1"
         style="stop-color:white;stop-opacity:1" />
    </linearGradient>
    <linearGradient
       id="linearGradient4671">
      <stop
         id="stop4673"
         offset="0"
         style="stop-color:#ffd43b;stop-opacity:1;" />
      <stop
         id="stop4675"
         offset="1"
         style="stop-color:#ffe873;stop-opacity:1" />
    </linearGradient>
    <linearGradient
       id="linearGradient4689">
      <stop
         id="stop4691"
         offset="0"
         style="stop-color:#5a9fd4;stop-opacity:1;" />
      <stop
         id="stop4693"
         offset="1"
         style="stop-color:#306998;stop-opacity:1;" />
    </linearGradient>
    <linearGradient
       gradientTransform="translate(100.2702,99.61116)"
       gradientUnits="userSpaceOnUse"
       xlink:href="#linearGradient4671"
       id="linearGradient2987"
       y2="144.75717"
       x2="-65.308502"
       y1="144.75717"
       x1="224.23996" />
    <linearGradient
       gradientTransform="translate(100.2702,99.61116)"
       gradientUnits="userSpaceOnUse"
       xlink:href="#linearGradient4689"
       id="linearGradient2990"
       y2="76.313133"
       x2="26.670298"
       y1="77.475983"
       x1="172.94208" />
    <linearGradient
       y2="144.75717"
       x2="-65.308502"
       y1="144.75717"
       x1="224.23996"
       gradientTransform="matrix(0.562541,0,0,0.567972,-11.5974,-7.60954)"
       gradientUnits="userSpaceOnUse"
       id="linearGradient2255"
       xlink:href="#linearGradient4671"
       inkscape:collect="always" />
    <linearGradient
       y2="76.313133"
       x2="26.670298"
       y1="76.176224"
       x1="172.94208"
       gradientTransform="matrix(0.562541,0,0,0.567972,-11.5974,-7.60954)"
       gradientUnits="userSpaceOnUse"
       id="linearGradient2258"
       xlink:href="#linearGradient4689"
       inkscape:collect="always" />
    <radialGradient
       gradientUnits="userSpaceOnUse"
       gradientTransform="matrix(1,0,0,0.177966,0,108.7434)"
       r="29.036913"
       fy="132.28575"
       fx="61.518883"
       cy="132.28575"
       cx="61.518883"
       id="radialGradient2801"
       xlink:href="#linearGradient2795"
       inkscape:collect="always" />
    <radialGradient
       inkscape:collect="always"
       xlink:href="#linearGradient4104"
       id="radialGradient4110"
       cx="960"
       cy="512.36218"
       fx="960"
       fy="512.36218"
       r="960"
       gradientTransform="matrix(0.26458333,0,0,0.14882812,-1003.3252,217.56549)"
       gradientUnits="userSpaceOnUse" />
    <linearGradient
       id="linearGradient4104">
      <stop
         style="stop-color:#09091f;stop-opacity:1;"
         offset="0"
         id="stop4106" />
      <stop
         style="stop-color:#02020e;stop-opacity:1;"
         offset="1"
         id="stop4108" />
    </linearGradient>
    <rect
       x="-412.49023"
       y="-927.86621"
       width="919.09564"
       height="214.4539"
       id="rect9505" />
    <rect
       x="-412.49023"
       y="-927.86621"
       width="831.42645"
       height="224.81129"
       id="rect10977" />
  </defs>
  <sodipodi:namedview
     id="base"
     pagecolor="#ffffff"
     bordercolor="#666666"
     borderopacity="1.0"
     inkscape:pageopacity="0.0"
     inkscape:pageshadow="2"
     inkscape:zoom="0.35"
     inkscape:cx="708.57143"
     inkscape:cy="417.14286"
     inkscape:document-units="mm"
     inkscape:current-layer="layer1"
     showgrid="false"
     units="px"
     inkscape:window-width="1920"
     inkscape:window-height="1011"
     inkscape:window-x="1050"
     inkscape:window-y="190"
     inkscape:window-maximized="1"
     fit-margin-top="0"
     fit-margin-left="0"
     fit-margin-right="0"
     fit-margin-bottom="0"
     showguides="false"
     inkscape:showpageshadow="2"
     inkscape:pagecheckerboard="0"
     inkscape:deskcolor="#d1d1d1" />
  <metadata
     id="metadata5">
    <rdf:RDF>
      <cc:Work
         rdf:about="">
        <dc:format>image/svg+xml</dc:format>
        <dc:type
           rdf:resource="http://purl.org/dc/dcmitype/StillImage" />
      </cc:Work>
    </rdf:RDF>
  </metadata>
  <g
     inkscape:label="Layer 1"
     inkscape:groupmode="layer"
     id="layer1"
     transform="translate(293.51417,132.92952)">
    <g
       id="g7832"
       transform="matrix(0.84412749,0,0,0.84412749,553.41979,-260.34583)">
      <path
         style="fill:#0c182b;fill-opacity:1;stroke:none;stroke-width:0.264583;stroke-linecap:butt;stroke-linejoin:round;stroke-miterlimit:100000"
         d="m -1003.2517,150.94439 h 507.85306 c 0.0407,0 0.0735,0.0541 0.0735,0.12133 v 285.50734 c 0,0.0672 -0.0328,0.12134 -0.0735,0.12134 h -507.85306 c -0.041,0 -0.073,-0.0541 -0.073,-0.12134 V 151.06572 c 0,-0.0672 0.033,-0.12133 0.073,-0.12133 z"
         id="rect2985" />
      <path
         style="fill:url(#radialGradient4110);fill-opacity:1;stroke:none;stroke-width:0.264583;stroke-linecap:butt;stroke-linejoin:round;stroke-miterlimit:100000"
         d="m -1003.2517,150.94439 h 507.85306 c 0.0407,0 0.0735,0.0541 0.0735,0.12133 v 285.50734 c 0,0.0672 -0.0328,0.12134 -0.0735,0.12134 h -507.85306 c -0.041,0 -0.073,-0.0541 -0.073,-0.12134 V 151.06572 c 0,-0.0672 0.033,-0.12133 0.073,-0.12133 z"
         id="rect2985-2" />
      <g
         id="g1525"
         style="stroke-linecap:butt;stroke-linejoin:round;stroke-miterlimit:100000"
         transform="matrix(0.26458333,0,0,0.26458333,-1003.3252,158.2569)">
        <path
           style="fill:#ffffff;fill-opacity:0.27451;stroke:#ffffff;stroke-width:0;stroke-linecap:butt;stroke-linejoin:round;stroke-miterlimit:100"
           d="m 611.37818,708.45234 -1.00776,6.65123 c -0.95398,0.33351 -1.70905,1.04919 -2.01552,2.01553 l -6.55045,1.00776 6.65122,1.00776 c 0.32364,0.91953 0.99522,1.59111 1.91475,1.91475 l 1.00776,6.65122 1.00776,-6.55045 c 0.96634,-0.30649 1.68202,-1.06154 2.01553,-2.01552 l 6.65123,-1.00776 -6.65123,-1.00776 c -0.3172,-0.98582 -1.0297,-1.69834 -2.01553,-2.01553 z"
           id="path3465-5-6-8-7"
           inkscape:connector-curvature="0" />
        <path
           style="fill:#ffffff;fill-opacity:0.27451;stroke:#ffffff;stroke-width:0;stroke-linecap:butt;stroke-linejoin:round;stroke-miterlimit:100"
           d="m 434.23533,825.5952 -1.00777,6.65123 c -0.95397,0.33351 -1.70904,1.04918 -2.01552,2.01552 l -6.55045,1.00776 6.65123,1.00777 c 0.32363,0.91953 0.99521,1.59111 1.91474,1.91474 l 1.00777,6.65123 1.00776,-6.55045 c 0.96634,-0.30649 1.68201,-1.06155 2.01552,-2.01552 l 6.65123,-1.00777 -6.65123,-1.00776 c -0.31719,-0.98582 -1.0297,-1.69834 -2.01552,-2.01552 z"
           id="path3465-5-6-8-8"
           inkscape:connector-curvature="0" />
        <path
           style="fill:#ffffff;fill-opacity:0.27451;stroke:#ffffff;stroke-width:0;stroke-linecap:butt;stroke-linejoin:round;stroke-miterlimit:100"
           d="m 328.52104,422.73806 -1.00776,6.65123 c -0.95398,0.33351 -1.70905,1.04918 -2.01553,2.01552 l -6.55045,1.00776 6.65123,1.00776 c 0.32363,0.91954 0.99521,1.59112 1.91475,1.91475 l 1.00776,6.65123 1.00776,-6.55045 c 0.96634,-0.30649 1.68201,-1.06155 2.01553,-2.01553 l 6.65122,-1.00776 -6.65122,-1.00776 c -0.3172,-0.98582 -1.0297,-1.69834 -2.01553,-2.01552 z"
           id="path3465-5-6-8-4"
           inkscape:connector-curvature="0" />
        <path
           style="fill:#ffffff;fill-opacity:0.27451;stroke:#ffffff;stroke-width:0;stroke-linecap:butt;stroke-linejoin:round;stroke-miterlimit:100"
           d="m 1188.521,202.73806 -1.0077,6.65123 c -0.954,0.33351 -1.7091,1.04918 -2.0155,2.01552 l -6.5505,1.00776 6.6512,1.00776 c 0.3237,0.91954 0.9952,1.59112 1.9148,1.91475 l 1.0077,6.65123 1.0078,-6.55045 c 0.9663,-0.30649 1.682,-1.06155 2.0155,-2.01553 l 6.6513,-1.00776 -6.6513,-1.00776 c -0.3172,-0.98582 -1.0297,-1.69834 -2.0155,-2.01552 z"
           id="path3465-5-6-8-5"
           inkscape:connector-curvature="0" />
        <path
           style="fill:#ffffff;fill-opacity:0.27451;stroke:#ffffff;stroke-width:0;stroke-linecap:butt;stroke-linejoin:round;stroke-miterlimit:100"
           d="m 1659.9496,142.73806 -1.0078,6.65123 c -0.9539,0.33351 -1.709,1.04918 -2.0155,2.01552 l -6.5504,1.00776 6.6512,1.00776 c 0.3236,0.91954 0.9952,1.59112 1.9147,1.91475 l 1.0078,6.65123 1.0078,-6.55045 c 0.9663,-0.30649 1.682,-1.06155 2.0155,-2.01553 l 6.6512,-1.00776 -6.6512,-1.00776 c -0.3172,-0.98582 -1.0297,-1.69834 -2.0155,-2.01552 z"
           id="path3465-5-6-8-0"
           inkscape:connector-curvature="0" />
        <path
           style="fill:#ffffff;fill-opacity:0.27451;stroke:#ffffff;stroke-width:0;stroke-linecap:butt;stroke-linejoin:round;stroke-miterlimit:100"
           d="m 1705.6639,451.30949 -1.0078,6.65122 c -0.9539,0.33352 -1.709,1.04919 -2.0155,2.01553 l -6.5504,1.00776 6.6512,1.00776 c 0.3236,0.91954 0.9952,1.59112 1.9147,1.91475 l 1.0078,6.65123 1.0078,-6.55045 c 0.9663,-0.30649 1.682,-1.06155 2.0155,-2.01553 l 6.6512,-1.00776 -6.6512,-1.00776 c -0.3172,-0.98582 -1.0297,-1.69834 -2.0155,-2.01553 z"
           id="path3465-5-6-8-3"
           inkscape:connector-curvature="0" />
        <path
           style="fill:#ffffff;fill-opacity:0.27451;stroke:#ffffff;stroke-width:0;stroke-linecap:butt;stroke-linejoin:round;stroke-miterlimit:100"
           d="m 1731.3782,745.5952 -1.0078,6.65123 c -0.954,0.33351 -1.709,1.04918 -2.0155,2.01552 l -6.5505,1.00776 6.6513,1.00777 c 0.3236,0.91953 0.9952,1.59111 1.9147,1.91474 l 1.0078,6.65123 1.0077,-6.55045 c 0.9664,-0.30649 1.6821,-1.06155 2.0156,-2.01552 l 6.6512,-1.00777 -6.6512,-1.00776 c -0.3172,-0.98582 -1.0297,-1.69834 -2.0156,-2.01552 z"
           id="path3465-5-6-8-6"
           inkscape:connector-curvature="0" />
        <path
           style="fill:#ffffff;fill-opacity:0.27451;stroke:#ffffff;stroke-width:0;stroke-linecap:butt;stroke-linejoin:round;stroke-miterlimit:100"
           d="m 1459.9496,508.45234 -1.0078,6.65123 c -0.9539,0.33351 -1.709,1.04919 -2.0155,2.01553 l -6.5504,1.00776 6.6512,1.00776 c 0.3236,0.91953 0.9952,1.59111 1.9147,1.91475 l 1.0078,6.65122 1.0078,-6.55045 c 0.9663,-0.30649 1.682,-1.06154 2.0155,-2.01552 l 6.6512,-1.00776 -6.6512,-1.00776 c -0.3172,-0.98582 -1.0297,-1.69834 -2.0155,-2.01553 z"
           id="path3465-5-6-8-1"
           inkscape:connector-curvature="0" />
        <path
           style="fill:#ffffff;fill-opacity:0.27451;stroke:#ffffff;stroke-width:0;stroke-linecap:butt;stroke-linejoin:round;stroke-miterlimit:100"
           d="m 1388.521,814.16663 -1.0077,6.65123 c -0.954,0.33351 -1.7091,1.04918 -2.0155,2.01552 l -6.5505,1.00776 6.6512,1.00776 c 0.3237,0.91954 0.9952,1.59112 1.9148,1.91475 l 1.0077,6.65123 1.0078,-6.55045 c 0.9663,-0.30649 1.682,-1.06155 2.0155,-2.01553 l 6.6513,-1.00776 -6.6513,-1.00776 c -0.3172,-0.98582 -1.0297,-1.69834 -2.0155,-2.01552 z"
           id="path3465-5-6-8-06"
           inkscape:connector-curvature="0" />
        <path
           style="fill:#ffffff;fill-opacity:0.27451;stroke:#ffffff;stroke-width:0;stroke-linecap:butt;stroke-linejoin:round;stroke-miterlimit:100"
           d="m 1582.8068,839.88091 -1.0078,6.65123 c -0.954,0.33352 -1.7091,1.04919 -2.0155,2.01553 l -6.5505,1.00776 6.6512,1.00776 c 0.3237,0.91953 0.9953,1.59112 1.9148,1.91475 l 1.0078,6.65123 1.0077,-6.55046 c 0.9664,-0.30649 1.682,-1.06154 2.0155,-2.01552 l 6.6513,-1.00776 -6.6513,-1.00776 c -0.3172,-0.98582 -1.0297,-1.69834 -2.0155,-2.01553 z"
           id="path3465-5-6-8-32"
           inkscape:connector-curvature="0" />
        <path
           style="fill:#ffffff;fill-opacity:0.27451;stroke:#ffffff;stroke-width:0;stroke-linecap:butt;stroke-linejoin:round;stroke-miterlimit:100"
           d="m 982.80675,837.02377 -1.00776,6.65123 c -0.95398,0.33351 -1.70905,1.04918 -2.01552,2.01552 l -6.55045,1.00776 6.65123,1.00777 c 0.32363,0.91953 0.99521,1.59111 1.91474,1.91474 l 1.00776,6.65123 1.00777,-6.55045 c 0.96634,-0.30649 1.68201,-1.06155 2.01552,-2.01552 l 6.65123,-1.00777 -6.65123,-1.00776 c -0.31719,-0.98582 -1.0297,-1.69834 -2.01552,-2.01552 z"
           id="path3465-5-6-8-061"
           inkscape:connector-curvature="0" />
        <path
           style="fill:#ffffff;fill-opacity:0.27451;stroke:#ffffff;stroke-width:0;stroke-linecap:butt;stroke-linejoin:round;stroke-miterlimit:100"
           d="m 531.37818,885.5952 -1.00776,6.65123 c -0.95398,0.33351 -1.70905,1.04918 -2.01552,2.01552 l -6.55045,1.00776 6.65122,1.00777 c 0.32364,0.91953 0.99522,1.59111 1.91475,1.91474 l 1.00776,6.65123 1.00776,-6.55045 c 0.96634,-0.30649 1.68202,-1.06155 2.01553,-2.01552 l 6.65123,-1.00777 -6.65123,-1.00776 c -0.3172,-0.98582 -1.0297,-1.69834 -2.01553,-2.01552 z"
           id="path3465-5-6-8-55"
           inkscape:connector-curvature="0" />
        <path
           style="fill:#ffffff;fill-opacity:0.27451;stroke:#ffffff;stroke-width:0;stroke-linecap:butt;stroke-linejoin:round;stroke-miterlimit:100"
           d="m 208.52104,688.45234 -1.00776,6.65123 c -0.95398,0.33351 -1.70905,1.04919 -2.01553,2.01553 l -6.55045,1.00776 6.65123,1.00776 c 0.32363,0.91953 0.99521,1.59111 1.91475,1.91475 l 1.00776,6.65122 1.00776,-6.55045 c 0.96634,-0.30649 1.68201,-1.06154 2.01553,-2.01552 l 6.65122,-1.00776 -6.65122,-1.00776 c -0.3172,-0.98582 -1.0297,-1.69834 -2.01553,-2.01553 z"
           id="path3465-5-6-8-47"
           inkscape:connector-curvature="0" />
        <path
           style="fill:#ffffff;fill-opacity:0.27451;stroke:#ffffff;stroke-width:0;stroke-linecap:butt;stroke-linejoin:round;stroke-miterlimit:100"
           d="m 208.52104,297.02377 -1.00776,6.65123 c -0.95398,0.33351 -1.70905,1.04918 -2.01553,2.01552 l -6.55045,1.00776 6.65123,1.00777 c 0.32363,0.91953 0.99521,1.59111 1.91475,1.91474 l 1.00776,6.65123 1.00776,-6.55045 c 0.96634,-0.30649 1.68201,-1.06155 2.01553,-2.01552 l 6.65122,-1.00777 -6.65122,-1.00776 c -0.3172,-0.98582 -1.0297,-1.69834 -2.01553,-2.01552 z"
           id="path3465-5-6-8-65"
           inkscape:connector-curvature="0" />
        <path
           style="fill:#ffffff;fill-opacity:0.27451;stroke:#ffffff;stroke-width:0;stroke-linecap:butt;stroke-linejoin:round;stroke-miterlimit:100"
           d="m 154.23533,45.5952 -1.00777,6.651228 c -0.95397,0.333513 -1.70904,1.049185 -2.01552,2.015524 l -6.55045,1.007761 6.65123,1.007762 c 0.32363,0.919534 0.99521,1.591116 1.91474,1.914748 l 1.00777,6.651228 1.00776,-6.550452 c 0.96634,-0.306489 1.68201,-1.061546 2.01552,-2.015524 l 6.65123,-1.007762 -6.65123,-1.007761 c -0.31719,-0.98582 -1.0297,-1.698339 -2.01552,-2.015524 z"
           id="path3465-5-6-8-69"
           inkscape:connector-curvature="0" />
        <path
           style="fill:#ffffff;fill-opacity:0.27451;stroke:#ffffff;stroke-width:0;stroke-linecap:butt;stroke-linejoin:round;stroke-miterlimit:100"
           d="M 608.52104,37.023772 607.51328,43.675 c -0.95398,0.333513 -1.70905,1.049185 -2.01553,2.015524 l -6.55045,1.007761 6.65123,1.007762 c 0.32363,0.919534 0.99521,1.591116 1.91475,1.914748 l 1.00776,6.651228 1.00776,-6.550452 c 0.96634,-0.306489 1.68201,-1.061546 2.01553,-2.015524 l 6.65122,-1.007762 -6.65122,-1.007761 c -0.3172,-0.98582 -1.0297,-1.698339 -2.01553,-2.015524 z"
           id="path3465-5-6-8-37"
           inkscape:connector-curvature="0" />
        <path
           style="fill:#ffffff;fill-opacity:0.27451;stroke:#ffffff;stroke-width:0;stroke-linecap:butt;stroke-linejoin:round;stroke-miterlimit:100"
           d="m 559.94961,237.02377 -1.00776,6.65123 c -0.95398,0.33351 -1.70905,1.04918 -2.01552,2.01552 l -6.55046,1.00776 6.65123,1.00777 c 0.32363,0.91953 0.99522,1.59111 1.91475,1.91474 l 1.00776,6.65123 1.00776,-6.55045 c 0.96634,-0.30649 1.68201,-1.06155 2.01553,-2.01552 l 6.65123,-1.00777 -6.65123,-1.00776 c -0.3172,-0.98582 -1.0297,-1.69834 -2.01553,-2.01552 z"
           id="path3465-5-6-8-45"
           inkscape:connector-curvature="0" />
        <path
           style="fill:#ffffff;fill-opacity:0.27451;stroke:#ffffff;stroke-width:0;stroke-linecap:butt;stroke-linejoin:round;stroke-miterlimit:100"
           d="m 725.6639,282.73806 -1.00776,6.65123 c -0.95398,0.33351 -1.70905,1.04918 -2.01553,2.01552 l -6.55045,1.00776 6.65123,1.00776 c 0.32363,0.91954 0.99521,1.59112 1.91475,1.91475 l 1.00776,6.65123 1.00776,-6.55045 c 0.96634,-0.30649 1.68201,-1.06155 2.01552,-2.01553 l 6.65123,-1.00776 -6.65123,-1.00776 c -0.31719,-0.98582 -1.0297,-1.69834 -2.01552,-2.01552 z"
           id="path3465-5-6-8-2"
           inkscape:connector-curvature="0" />
        <path
           id="path3465-27-8-9-5"
           d="m -20.304602,33.840839 a 0.84602505,1.0152301 0 0 1 -0.846025,1.01523 0.84602505,1.0152301 0 0 1 -0.846025,-1.01523 0.84602505,1.0152301 0 0 1 0.846025,-1.01523 0.84602505,1.0152301 0 0 1 0.846025,1.01523 z"
           style="fill:#ffffff;fill-opacity:0.27451;stroke:#ffffff;stroke-width:0;stroke-linecap:butt;stroke-linejoin:round;stroke-miterlimit:100;stroke-dasharray:none"
           transform="matrix(5.1799351,0,0,4.3166124,1358.1074,473.93911)" />
        <path
           id="path3465-27-8-9-4"
           d="m -20.304602,33.840839 a 0.84602505,1.0152301 0 0 1 -0.846025,1.01523 0.84602505,1.0152301 0 0 1 -0.846025,-1.01523 0.84602505,1.0152301 0 0 1 0.846025,-1.01523 0.84602505,1.0152301 0 0 1 0.846025,1.01523 z"
           style="fill:#ffffff;fill-opacity:0.27451;stroke:#ffffff;stroke-width:0;stroke-linecap:butt;stroke-linejoin:round;stroke-miterlimit:100;stroke-dasharray:none"
           transform="matrix(5.1799351,0,0,4.3166124,1127.7926,607.27924)" />
        <path
           id="path3465-27-8-9-7"
           d="m -20.304602,33.840839 a 0.84602505,1.0152301 0 0 1 -0.846025,1.01523 0.84602505,1.0152301 0 0 1 -0.846025,-1.01523 0.84602505,1.0152301 0 0 1 0.846025,-1.01523 0.84602505,1.0152301 0 0 1 0.846025,1.01523 z"
           style="fill:#ffffff;fill-opacity:0.27451;stroke:#ffffff;stroke-width:0;stroke-linecap:butt;stroke-linejoin:round;stroke-miterlimit:100;stroke-dasharray:none"
           transform="matrix(5.1799351,0,0,4.3166124,788.38139,578.99497)" />
        <path
           id="path3465-27-8-9-44"
           d="m -20.304602,33.840839 a 0.84602505,1.0152301 0 0 1 -0.846025,1.01523 0.84602505,1.0152301 0 0 1 -0.846025,-1.01523 0.84602505,1.0152301 0 0 1 0.846025,-1.01523 0.84602505,1.0152301 0 0 1 0.846025,1.01523 z"
           style="fill:#ffffff;fill-opacity:0.27451;stroke:#ffffff;stroke-width:0;stroke-linecap:butt;stroke-linejoin:round;stroke-miterlimit:100;stroke-dasharray:none"
           transform="matrix(5.1799351,0,0,4.3166124,780.30017,223.42128)" />
        <path
           id="path3465-27-8-9-3"
           d="m -20.304602,33.840839 a 0.84602505,1.0152301 0 0 1 -0.846025,1.01523 0.84602505,1.0152301 0 0 1 -0.846025,-1.01523 0.84602505,1.0152301 0 0 1 0.846025,-1.01523 0.84602505,1.0152301 0 0 1 0.846025,1.01523 z"
           style="fill:#ffffff;fill-opacity:0.27451;stroke:#ffffff;stroke-width:0;stroke-linecap:butt;stroke-linejoin:round;stroke-miterlimit:100;stroke-dasharray:none"
           transform="matrix(5.1799351,0,0,4.3166124,1556.0973,158.77151)" />
        <path
           id="path3465-27-8-9-0"
           d="m -20.304602,33.840839 a 0.84602505,1.0152301 0 0 1 -0.846025,1.01523 0.84602505,1.0152301 0 0 1 -0.846025,-1.01523 0.84602505,1.0152301 0 0 1 0.846025,-1.01523 0.84602505,1.0152301 0 0 1 0.846025,1.01523 z"
           style="fill:#ffffff;fill-opacity:0.27451;stroke:#ffffff;stroke-width:0;stroke-linecap:butt;stroke-linejoin:round;stroke-miterlimit:100;stroke-dasharray:none"
           transform="matrix(5.1799351,0,0,4.3166124,1814.6964,-31.137165)" />
        <path
           id="path3465-27-8-9-78"
           d="m -20.304602,33.840839 a 0.84602505,1.0152301 0 0 1 -0.846025,1.01523 0.84602505,1.0152301 0 0 1 -0.846025,-1.01523 0.84602505,1.0152301 0 0 1 0.846025,-1.01523 0.84602505,1.0152301 0 0 1 0.846025,1.01523 z"
           style="fill:#ffffff;fill-opacity:0.27451;stroke:#ffffff;stroke-width:0;stroke-linecap:butt;stroke-linejoin:round;stroke-miterlimit:100;stroke-dasharray:none"
           transform="matrix(5.1799351,0,0,4.3166124,1826.8182,486.06094)" />
        <path
           id="path3465-27-8-9-6"
           d="m -20.304602,33.840839 a 0.84602505,1.0152301 0 0 1 -0.846025,1.01523 0.84602505,1.0152301 0 0 1 -0.846025,-1.01523 0.84602505,1.0152301 0 0 1 0.846025,-1.01523 0.84602505,1.0152301 0 0 1 0.846025,1.01523 z"
           style="fill:#ffffff;fill-opacity:0.27451;stroke:#ffffff;stroke-width:0;stroke-linecap:butt;stroke-linejoin:round;stroke-miterlimit:100;stroke-dasharray:none"
           transform="matrix(5.1799351,0,0,4.3166124,1636.9095,704.25389)" />
        <path
           id="path3465-27-8-9-8"
           d="m -20.304602,33.840839 a 0.84602505,1.0152301 0 0 1 -0.846025,1.01523 0.84602505,1.0152301 0 0 1 -0.846025,-1.01523 0.84602505,1.0152301 0 0 1 0.846025,-1.01523 0.84602505,1.0152301 0 0 1 0.846025,1.01523 z"
           style="fill:#ffffff;fill-opacity:0.27451;stroke:#ffffff;stroke-width:0;stroke-linecap:butt;stroke-linejoin:round;stroke-miterlimit:100;stroke-dasharray:none"
           transform="matrix(5.1799351,0,0,4.3166124,1337.9044,611.31985)" />
        <path
           id="path3465-27-8-9-84"
           d="m -20.304602,33.840839 a 0.84602505,1.0152301 0 0 1 -0.846025,1.01523 0.84602505,1.0152301 0 0 1 -0.846025,-1.01523 0.84602505,1.0152301 0 0 1 0.846025,-1.01523 0.84602505,1.0152301 0 0 1 0.846025,1.01523 z"
           style="fill:#ffffff;fill-opacity:0.27451;stroke:#ffffff;stroke-width:0;stroke-linecap:butt;stroke-linejoin:round;stroke-miterlimit:100;stroke-dasharray:none"
           transform="matrix(5.1799351,0,0,4.3166124,1172.2394,760.82243)" />
        <path
           id="path3465-27-8-9-31"
           d="m -20.304602,33.840839 a 0.84602505,1.0152301 0 0 1 -0.846025,1.01523 0.84602505,1.0152301 0 0 1 -0.846025,-1.01523 0.84602505,1.0152301 0 0 1 0.846025,-1.01523 0.84602505,1.0152301 0 0 1 0.846025,1.01523 z"
           style="fill:#ffffff;fill-opacity:0.27451;stroke:#ffffff;stroke-width:0;stroke-linecap:butt;stroke-linejoin:round;stroke-miterlimit:100;stroke-dasharray:none"
           transform="matrix(5.1799351,0,0,4.3166124,570.18844,760.82243)" />
        <path
           id="path3465-27-8-9-49"
           d="m -20.304602,33.840839 a 0.84602505,1.0152301 0 0 1 -0.846025,1.01523 0.84602505,1.0152301 0 0 1 -0.846025,-1.01523 0.84602505,1.0152301 0 0 1 0.846025,-1.01523 0.84602505,1.0152301 0 0 1 0.846025,1.01523 z"
           style="fill:#ffffff;fill-opacity:0.27451;stroke:#ffffff;stroke-width:0;stroke-linecap:butt;stroke-linejoin:round;stroke-miterlimit:100;stroke-dasharray:none"
           transform="matrix(5.1799351,0,0,4.3166124,453.01074,405.24873)" />
        <path
           id="path3465-27-8-9-2"
           d="m -20.304602,33.840839 a 0.84602505,1.0152301 0 0 1 -0.846025,1.01523 0.84602505,1.0152301 0 0 1 -0.846025,-1.01523 0.84602505,1.0152301 0 0 1 0.846025,-1.01523 0.84602505,1.0152301 0 0 1 0.846025,1.01523 z"
           style="fill:#ffffff;fill-opacity:0.27451;stroke:#ffffff;stroke-width:0;stroke-linecap:butt;stroke-linejoin:round;stroke-miterlimit:100;stroke-dasharray:none"
           transform="matrix(5.1799351,0,0,4.3166124,655.04125,405.24873)" />
        <path
           id="path3465-27-8-9-06"
           d="m -20.304602,33.840839 a 0.84602505,1.0152301 0 0 1 -0.846025,1.01523 0.84602505,1.0152301 0 0 1 -0.846025,-1.01523 0.84602505,1.0152301 0 0 1 0.846025,-1.01523 0.84602505,1.0152301 0 0 1 0.846025,1.01523 z"
           style="fill:#ffffff;fill-opacity:0.27451;stroke:#ffffff;stroke-width:0;stroke-linecap:butt;stroke-linejoin:round;stroke-miterlimit:100;stroke-dasharray:none"
           transform="matrix(5.1799351,0,0,4.3166124,400.48281,94.12175)" />
        <path
           id="path3465-27-8-9-89"
           d="m -20.304602,33.840839 a 0.84602505,1.0152301 0 0 1 -0.846025,1.01523 0.84602505,1.0152301 0 0 1 -0.846025,-1.01523 0.84602505,1.0152301 0 0 1 0.846025,-1.01523 0.84602505,1.0152301 0 0 1 0.846025,1.01523 z"
           style="fill:#ffffff;fill-opacity:0.27451;stroke:#ffffff;stroke-width:0;stroke-linecap:butt;stroke-linejoin:round;stroke-miterlimit:100;stroke-dasharray:none"
           transform="matrix(5.1799351,0,0,4.3166124,194.41169,191.09639)" />
        <path
           id="path3465-27-8-9-26"
           d="m -20.304602,33.840839 a 0.84602505,1.0152301 0 0 1 -0.846025,1.01523 0.84602505,1.0152301 0 0 1 -0.846025,-1.01523 0.84602505,1.0152301 0 0 1 0.846025,-1.01523 0.84602505,1.0152301 0 0 1 0.846025,1.01523 z"
           style="fill:#ffffff;fill-opacity:0.27451;stroke:#ffffff;stroke-width:0;stroke-linecap:butt;stroke-linejoin:round;stroke-miterlimit:100;stroke-dasharray:none"
           transform="matrix(5.1799351,0,0,4.3166124,388.36098,748.7006)" />
        <path
           id="path3465-5-1-4-2-6"
           d="m -20.304602,33.840839 a 0.84602505,1.0152301 0 0 1 -0.846025,1.01523 0.84602505,1.0152301 0 0 1 -0.846025,-1.01523 0.84602505,1.0152301 0 0 1 0.846025,-1.01523 0.84602505,1.0152301 0 0 1 0.846025,1.01523 z"
           style="fill:#ffffff;fill-opacity:0.27451;stroke:#ffffff;stroke-width:0;stroke-linecap:butt;stroke-linejoin:round;stroke-miterlimit:100;stroke-dasharray:none"
           transform="matrix(2.4776389,0,0,2.0646991,766.68933,568.20532)" />
        <path
           id="path3465-5-1-4-2-4"
           d="m -20.304602,33.840839 a 0.84602505,1.0152301 0 0 1 -0.846025,1.01523 0.84602505,1.0152301 0 0 1 -0.846025,-1.01523 0.84602505,1.0152301 0 0 1 0.846025,-1.01523 0.84602505,1.0152301 0 0 1 0.846025,1.01523 z"
           style="fill:#ffffff;fill-opacity:0.27451;stroke:#ffffff;stroke-width:0;stroke-linecap:butt;stroke-linejoin:round;stroke-miterlimit:100;stroke-dasharray:none"
           transform="matrix(2.4776389,0,0,2.0646991,909.54647,719.63389)" />
        <path
           id="path3465-5-1-4-2-9"
           d="m -20.304602,33.840839 a 0.84602505,1.0152301 0 0 1 -0.846025,1.01523 0.84602505,1.0152301 0 0 1 -0.846025,-1.01523 0.84602505,1.0152301 0 0 1 0.846025,-1.01523 0.84602505,1.0152301 0 0 1 0.846025,1.01523 z"
           style="fill:#ffffff;fill-opacity:0.27451;stroke:#ffffff;stroke-width:0;stroke-linecap:butt;stroke-linejoin:round;stroke-miterlimit:100;stroke-dasharray:none"
           transform="matrix(2.4776389,0,0,2.0646991,1118.1179,725.34818)" />
        <path
           id="path3465-5-1-4-2-5"
           d="m -20.304602,33.840839 a 0.84602505,1.0152301 0 0 1 -0.846025,1.01523 0.84602505,1.0152301 0 0 1 -0.846025,-1.01523 0.84602505,1.0152301 0 0 1 0.846025,-1.01523 0.84602505,1.0152301 0 0 1 0.846025,1.01523 z"
           style="fill:#ffffff;fill-opacity:0.27451;stroke:#ffffff;stroke-width:0;stroke-linecap:butt;stroke-linejoin:round;stroke-miterlimit:100;stroke-dasharray:none"
           transform="matrix(2.4776389,0,0,2.0646991,1558.1179,265.34818)" />
        <path
           id="path3465-5-1-4-2-0"
           d="m -20.304602,33.840839 a 0.84602505,1.0152301 0 0 1 -0.846025,1.01523 0.84602505,1.0152301 0 0 1 -0.846025,-1.01523 0.84602505,1.0152301 0 0 1 0.846025,-1.01523 0.84602505,1.0152301 0 0 1 0.846025,1.01523 z"
           style="fill:#ffffff;fill-opacity:0.27451;stroke:#ffffff;stroke-width:0;stroke-linecap:butt;stroke-linejoin:round;stroke-miterlimit:100;stroke-dasharray:none"
           transform="matrix(2.4776389,0,0,2.0646991,1746.6893,422.49103)" />
        <path
           id="path3465-5-1-4-2-48"
           d="m -20.304602,33.840839 a 0.84602505,1.0152301 0 0 1 -0.846025,1.01523 0.84602505,1.0152301 0 0 1 -0.846025,-1.01523 0.84602505,1.0152301 0 0 1 0.846025,-1.01523 0.84602505,1.0152301 0 0 1 0.846025,1.01523 z"
           style="fill:#ffffff;fill-opacity:0.27451;stroke:#ffffff;stroke-width:0;stroke-linecap:butt;stroke-linejoin:round;stroke-miterlimit:100;stroke-dasharray:none"
           transform="matrix(2.4776389,0,0,2.0646991,1669.5465,631.06246)" />
        <path
           id="path3465-5-1-4-2-7"
           d="m -20.304602,33.840839 a 0.84602505,1.0152301 0 0 1 -0.846025,1.01523 0.84602505,1.0152301 0 0 1 -0.846025,-1.01523 0.84602505,1.0152301 0 0 1 0.846025,-1.01523 0.84602505,1.0152301 0 0 1 0.846025,1.01523 z"
           style="fill:#ffffff;fill-opacity:0.27451;stroke:#ffffff;stroke-width:0;stroke-linecap:butt;stroke-linejoin:round;stroke-miterlimit:100;stroke-dasharray:none"
           transform="matrix(2.4776389,0,0,2.0646991,1555.2608,616.77675)" />
        <path
           id="path3465-5-1-4-2-1"
           d="m -20.304602,33.840839 a 0.84602505,1.0152301 0 0 1 -0.846025,1.01523 0.84602505,1.0152301 0 0 1 -0.846025,-1.01523 0.84602505,1.0152301 0 0 1 0.846025,-1.01523 0.84602505,1.0152301 0 0 1 0.846025,1.01523 z"
           style="fill:#ffffff;fill-opacity:0.27451;stroke:#ffffff;stroke-width:0;stroke-linecap:butt;stroke-linejoin:round;stroke-miterlimit:100;stroke-dasharray:none"
           transform="matrix(2.4776389,0,0,2.0646991,1698.1179,182.49103)" />
        <path
           id="path3465-5-1-4-2-72"
           d="m -20.304602,33.840839 a 0.84602505,1.0152301 0 0 1 -0.846025,1.01523 0.84602505,1.0152301 0 0 1 -0.846025,-1.01523 0.84602505,1.0152301 0 0 1 0.846025,-1.01523 0.84602505,1.0152301 0 0 1 0.846025,1.01523 z"
           style="fill:#ffffff;fill-opacity:0.27451;stroke:#ffffff;stroke-width:0;stroke-linecap:butt;stroke-linejoin:round;stroke-miterlimit:100;stroke-dasharray:none"
           transform="matrix(2.4776389,0,0,2.0646991,1280.975,142.49103)" />
        <path
           id="path3465-5-1-4-2-722"
           d="m -20.304602,33.840839 a 0.84602505,1.0152301 0 0 1 -0.846025,1.01523 0.84602505,1.0152301 0 0 1 -0.846025,-1.01523 0.84602505,1.0152301 0 0 1 0.846025,-1.01523 0.84602505,1.0152301 0 0 1 0.846025,1.01523 z"
           style="fill:#ffffff;fill-opacity:0.27451;stroke:#ffffff;stroke-width:0;stroke-linecap:butt;stroke-linejoin:round;stroke-miterlimit:100;stroke-dasharray:none"
           transform="matrix(2.4776389,0,0,2.0646991,992.40362,85.348175)" />
        <path
           id="path3465-5-1-4-2-61"
           d="m -20.304602,33.840839 a 0.84602505,1.0152301 0 0 1 -0.846025,1.01523 0.84602505,1.0152301 0 0 1 -0.846025,-1.01523 0.84602505,1.0152301 0 0 1 0.846025,-1.01523 0.84602505,1.0152301 0 0 1 0.846025,1.01523 z"
           style="fill:#ffffff;fill-opacity:0.27451;stroke:#ffffff;stroke-width:0;stroke-linecap:butt;stroke-linejoin:round;stroke-miterlimit:100;stroke-dasharray:none"
           transform="matrix(2.4776389,0,0,2.0646991,815.26076,113.9196)" />
        <path
           id="path3465-5-1-4-2-06"
           d="m -20.304602,33.840839 a 0.84602505,1.0152301 0 0 1 -0.846025,1.01523 0.84602505,1.0152301 0 0 1 -0.846025,-1.01523 0.84602505,1.0152301 0 0 1 0.846025,-1.01523 0.84602505,1.0152301 0 0 1 0.846025,1.01523 z"
           style="fill:#ffffff;fill-opacity:0.27451;stroke:#ffffff;stroke-width:0;stroke-linecap:butt;stroke-linejoin:round;stroke-miterlimit:100;stroke-dasharray:none"
           transform="matrix(2.4776389,0,0,2.0646991,595.26076,188.20532)" />
        <path
           id="path3465-5-1-4-2-15"
           d="m -20.304602,33.840839 a 0.84602505,1.0152301 0 0 1 -0.846025,1.01523 0.84602505,1.0152301 0 0 1 -0.846025,-1.01523 0.84602505,1.0152301 0 0 1 0.846025,-1.01523 0.84602505,1.0152301 0 0 1 0.846025,1.01523 z"
           style="fill:#ffffff;fill-opacity:0.27451;stroke:#ffffff;stroke-width:0;stroke-linecap:butt;stroke-linejoin:round;stroke-miterlimit:100;stroke-dasharray:none"
           transform="matrix(2.4776389,0,0,2.0646991,283.83219,153.9196)" />
        <path
           id="path3465-5-1-4-2-94"
           d="m -20.304602,33.840839 a 0.84602505,1.0152301 0 0 1 -0.846025,1.01523 0.84602505,1.0152301 0 0 1 -0.846025,-1.01523 0.84602505,1.0152301 0 0 1 0.846025,-1.01523 0.84602505,1.0152301 0 0 1 0.846025,1.01523 z"
           style="fill:#ffffff;fill-opacity:0.27451;stroke:#ffffff;stroke-width:0;stroke-linecap:butt;stroke-linejoin:round;stroke-miterlimit:100;stroke-dasharray:none"
           transform="matrix(2.4776389,0,0,2.0646991,292.40362,159.63389)" />
        <path
           id="path3465-5-1-4-2-90"
           d="m -20.304602,33.840839 a 0.84602505,1.0152301 0 0 1 -0.846025,1.01523 0.84602505,1.0152301 0 0 1 -0.846025,-1.01523 0.84602505,1.0152301 0 0 1 0.846025,-1.01523 0.84602505,1.0152301 0 0 1 0.846025,1.01523 z"
           style="fill:#ffffff;fill-opacity:0.27451;stroke:#ffffff;stroke-width:0;stroke-linecap:butt;stroke-linejoin:round;stroke-miterlimit:100;stroke-dasharray:none"
           transform="matrix(2.4776389,0,0,2.0646991,266.68933,611.06246)" />
        <path
           id="path3465-5-1-4-2-91"
           d="m -20.304602,33.840839 a 0.84602505,1.0152301 0 0 1 -0.846025,1.01523 0.84602505,1.0152301 0 0 1 -0.846025,-1.01523 0.84602505,1.0152301 0 0 1 0.846025,-1.01523 0.84602505,1.0152301 0 0 1 0.846025,1.01523 z"
           style="fill:#ffffff;fill-opacity:0.27451;stroke:#ffffff;stroke-width:0;stroke-linecap:butt;stroke-linejoin:round;stroke-miterlimit:100;stroke-dasharray:none"
           transform="matrix(2.4776389,0,0,2.0646991,609.54647,433.9196)" />
        <path
           id="path3465-5-1-4-2-77"
           d="m -20.304602,33.840839 a 0.84602505,1.0152301 0 0 1 -0.846025,1.01523 0.84602505,1.0152301 0 0 1 -0.846025,-1.01523 0.84602505,1.0152301 0 0 1 0.846025,-1.01523 0.84602505,1.0152301 0 0 1 0.846025,1.01523 z"
           style="fill:#ffffff;fill-opacity:0.27451;stroke:#ffffff;stroke-width:0;stroke-linecap:butt;stroke-linejoin:round;stroke-miterlimit:100;stroke-dasharray:none"
           transform="matrix(2.4776389,0,0,2.0646991,640.97505,376.77675)" />
        <path
           id="path3465-5-1-4-2-11"
           d="m -20.304602,33.840839 a 0.84602505,1.0152301 0 0 1 -0.846025,1.01523 0.84602505,1.0152301 0 0 1 -0.846025,-1.01523 0.84602505,1.0152301 0 0 1 0.846025,-1.01523 0.84602505,1.0152301 0 0 1 0.846025,1.01523 z"
           style="fill:#ffffff;fill-opacity:0.27451;stroke:#ffffff;stroke-width:0;stroke-linecap:butt;stroke-linejoin:round;stroke-miterlimit:100;stroke-dasharray:none"
           transform="matrix(2.4776389,0,0,2.0646991,315.26076,402.49103)" />
        <path
           id="path3465-5-1-4-2-59"
           d="m -20.304602,33.840839 a 0.84602505,1.0152301 0 0 1 -0.846025,1.01523 0.84602505,1.0152301 0 0 1 -0.846025,-1.01523 0.84602505,1.0152301 0 0 1 0.846025,-1.01523 0.84602505,1.0152301 0 0 1 0.846025,1.01523 z"
           style="fill:#ffffff;fill-opacity:0.27451;stroke:#ffffff;stroke-width:0;stroke-linecap:butt;stroke-linejoin:round;stroke-miterlimit:100;stroke-dasharray:none"
           transform="matrix(2.4776389,0,0,2.0646991,720.97505,682.49103)" />
        <path
           id="path3465-5-1-4-2-776"
           d="m -20.304602,33.840839 a 0.84602505,1.0152301 0 0 1 -0.846025,1.01523 0.84602505,1.0152301 0 0 1 -0.846025,-1.01523 0.84602505,1.0152301 0 0 1 0.846025,-1.01523 0.84602505,1.0152301 0 0 1 0.846025,1.01523 z"
           style="fill:#ffffff;fill-opacity:0.27451;stroke:#ffffff;stroke-width:0;stroke-linecap:butt;stroke-linejoin:round;stroke-miterlimit:100;stroke-dasharray:none"
           transform="matrix(2.4776389,0,0,2.0646991,1406.6893,522.49103)" />
        <path
           id="path3465-5-1-4-2-73"
           d="m -20.304602,33.840839 a 0.84602505,1.0152301 0 0 1 -0.846025,1.01523 0.84602505,1.0152301 0 0 1 -0.846025,-1.01523 0.84602505,1.0152301 0 0 1 0.846025,-1.01523 0.84602505,1.0152301 0 0 1 0.846025,1.01523 z"
           style="fill:#ffffff;fill-opacity:0.27451;stroke:#ffffff;stroke-width:0;stroke-linecap:butt;stroke-linejoin:round;stroke-miterlimit:100;stroke-dasharray:none"
           transform="matrix(2.4776389,0,0,2.0646991,1498.1179,499.63389)" />
        <path
           id="path3465-5-1-4-2-65"
           d="m -20.304602,33.840839 a 0.84602505,1.0152301 0 0 1 -0.846025,1.01523 0.84602505,1.0152301 0 0 1 -0.846025,-1.01523 0.84602505,1.0152301 0 0 1 0.846025,-1.01523 0.84602505,1.0152301 0 0 1 0.846025,1.01523 z"
           style="fill:#ffffff;fill-opacity:0.27451;stroke:#ffffff;stroke-width:0;stroke-linecap:butt;stroke-linejoin:round;stroke-miterlimit:100;stroke-dasharray:none"
           transform="matrix(2.4776389,0,0,2.0646991,1623.8322,562.49103)" />
        <path
           id="path3465-5-1-4-2-63"
           d="m -20.304602,33.840839 a 0.84602505,1.0152301 0 0 1 -0.846025,1.01523 0.84602505,1.0152301 0 0 1 -0.846025,-1.01523 0.84602505,1.0152301 0 0 1 0.846025,-1.01523 0.84602505,1.0152301 0 0 1 0.846025,1.01523 z"
           style="fill:#ffffff;fill-opacity:0.27451;stroke:#ffffff;stroke-width:0;stroke-linecap:butt;stroke-linejoin:round;stroke-miterlimit:100;stroke-dasharray:none"
           transform="matrix(2.4776389,0,0,2.0646991,1843.8322,662.49103)" />
        <path
           id="path3465-27-8-9-3-5"
           d="m -20.304602,33.840839 a 0.84602505,1.0152301 0 0 1 -0.846025,1.01523 0.84602505,1.0152301 0 0 1 -0.846025,-1.01523 0.84602505,1.0152301 0 0 1 0.846025,-1.01523 0.84602505,1.0152301 0 0 1 0.846025,1.01523 z"
           style="fill:#ffffff;fill-opacity:0.27451;stroke:#ffffff;stroke-width:0;stroke-linecap:butt;stroke-linejoin:round;stroke-miterlimit:100;stroke-dasharray:none"
           transform="matrix(5.1799351,0,0,4.3166124,1150.016,-103.86815)" />
        <path
           id="path3465-27-8-9-3-1"
           d="m -20.304602,33.840839 a 0.84602505,1.0152301 0 0 1 -0.846025,1.01523 0.84602505,1.0152301 0 0 1 -0.846025,-1.01523 0.84602505,1.0152301 0 0 1 0.846025,-1.01523 0.84602505,1.0152301 0 0 1 0.846025,1.01523 z"
           style="fill:#ffffff;fill-opacity:0.27451;stroke:#ffffff;stroke-width:0;stroke-linecap:butt;stroke-linejoin:round;stroke-miterlimit:100;stroke-dasharray:none"
           transform="matrix(5.1799351,0,0,4.3166124,1497.5085,-93.766623)" />
        <path
           id="path3465-27-8-9-3-9"
           d="m -20.304602,33.840839 a 0.84602505,1.0152301 0 0 1 -0.846025,1.01523 0.84602505,1.0152301 0 0 1 -0.846025,-1.01523 0.84602505,1.0152301 0 0 1 0.846025,-1.01523 0.84602505,1.0152301 0 0 1 0.846025,1.01523 z"
           style="fill:#ffffff;fill-opacity:0.27451;stroke:#ffffff;stroke-width:0;stroke-linecap:butt;stroke-linejoin:round;stroke-miterlimit:100;stroke-dasharray:none"
           transform="matrix(5.1799351,0,0,4.3166124,1592.4628,-2.8528943)" />
        <path
           style="fill:#ffffff;fill-opacity:0.27451;stroke:#ffffff;stroke-width:0;stroke-linecap:butt;stroke-linejoin:round;stroke-miterlimit:100"
           d="m 840.46408,585.23933 -1.00776,6.65123 c -0.95398,0.33345 -1.70905,1.04936 -2.01553,2.01553 l -6.55045,1.00776 6.65123,1.00776 c 0.32363,0.91972 0.99521,1.59113 1.91475,1.91491 l 1.00776,6.65123 1.00776,-6.55062 c 0.96634,-0.30636 1.68201,-1.06161 2.01552,-2.01552 l 6.65123,-1.00776 -6.65123,-1.00776 c -0.31719,-0.98584 -1.0297,-1.6982 -2.01552,-2.01553 z"
           id="path3465-5-6-8-74"
           inkscape:connector-curvature="0" />
        <path
           style="fill:#ffffff;fill-opacity:0.27451;stroke:#ffffff;stroke-width:0;stroke-linecap:butt;stroke-linejoin:round;stroke-miterlimit:100"
           d="m 927.10216,332.18743 -1.00776,6.65123 c -0.98582,0.31732 -1.69834,1.02972 -2.01552,2.01552 l -6.65123,1.00777 6.65123,1.00776 c 0.33351,0.954 1.04918,1.70907 2.01552,2.01552 l 1.00776,6.55045 1.00777,-6.65122 c 0.91953,-0.32362 1.59111,-0.99522 1.91474,-1.91475 l 6.65123,-1.00776 -6.55045,-1.00777 c -0.30649,-0.96632 -1.06155,-1.68201 -2.01552,-2.01552 z"
           id="path3465-1-0-9"
           inkscape:connector-curvature="0" />
        <path
           id="path3465-27-8-9-24"
           d="m -20.304602,33.840839 a 0.84602505,1.0152301 0 0 1 -0.846025,1.01523 0.84602505,1.0152301 0 0 1 -0.846025,-1.01523 0.84602505,1.0152301 0 0 1 0.846025,-1.01523 0.84602505,1.0152301 0 0 1 0.846025,1.01523 z"
           style="fill:#ffffff;fill-opacity:0.27451;stroke:#ffffff;stroke-width:0;stroke-linecap:butt;stroke-linejoin:round;stroke-miterlimit:100;stroke-dasharray:none"
           transform="matrix(5.1799351,0,0,4.3166124,1285.6893,391.76733)" />
        <path
           id="path3465-6-8-1-4"
           d="m -20.304602,33.840839 a 0.84602505,1.0152301 0 0 1 -0.846025,1.01523 0.84602505,1.0152301 0 0 1 -0.846025,-1.01523 0.84602505,1.0152301 0 0 1 0.846025,-1.01523 0.84602505,1.0152301 0 0 1 0.846025,1.01523 z"
           style="fill:#ffffff;fill-opacity:0.27451;stroke:#ffffff;stroke-width:0;stroke-linecap:butt;stroke-linejoin:round;stroke-miterlimit:100;stroke-dasharray:none"
           transform="matrix(2.521817,0,0,2.1015142,1038.2364,595.47879)" />
        <path
           style="fill:#ffffff;fill-opacity:0.27451;stroke:#ffffff;stroke-width:0;stroke-linecap:butt;stroke-linejoin:round;stroke-miterlimit:100"
           d="m 1111.1174,402.30126 -1.0077,6.65123 c -0.954,0.33345 -1.7091,1.04936 -2.0156,2.01553 l -6.5504,1.00776 6.6512,1.00776 c 0.3236,0.91972 0.9952,1.59113 1.9148,1.91491 l 1.0077,6.65123 1.0078,-6.55062 c 0.9663,-0.30636 1.682,-1.06161 2.0155,-2.01552 l 6.6512,-1.00776 -6.6512,-1.00776 c -0.3172,-0.98584 -1.0297,-1.6982 -2.0155,-2.01553 z"
           id="path3465-5-6-8-74-5"
           inkscape:connector-curvature="0" />
      </g>
    </g>
    <g
       id="g11159"
       transform="translate(-2.7011633,4.463562)">
      <g
         id="g7837"
         transform="translate(-269.8549,-247.30806)">
        <path
           style="color:#000000;font-style:normal;font-variant:normal;font-weight:normal;font-stretch:normal;font-size:medium;line-height:normal;font-family:sans-serif;font-variant-ligatures:normal;font-variant-position:normal;font-variant-caps:normal;font-variant-numeric:normal;font-variant-alternates:normal;font-feature-settings:normal;text-indent:0;text-align:start;text-decoration:none;text-decoration-line:none;text-decoration-style:solid;text-decoration-color:#000000;letter-spacing:normal;word-spacing:normal;text-transform:none;writing-mode:lr-tb;direction:ltr;text-orientation:mixed;dominant-baseline:auto;baseline-shift:baseline;text-anchor:start;white-space:normal;shape-padding:0;clip-rule:nonzero;display:inline;overflow:visible;visibility:visible;opacity:1;isolation:auto;mix-blend-mode:normal;color-interpolation:sRGB;color-interpolation-filters:linearRGB;solid-color:#000000;solid-opacity:1;vector-effect:none;fill:#3180bd;fill-opacity:1;fill-rule:nonzero;stroke:none;stroke-width:7.84244;stroke-linecap:round;stroke-linejoin:miter;stroke-miterlimit:4;stroke-dasharray:none;stroke-dashoffset:0;stroke-opacity:1;color-rendering:auto;image-rendering:auto;shape-rendering:auto;text-rendering:auto;enable-background:accumulate"
           d="m 238.18359,0.84960938 -91.14257,46.54687462 2.54687,15.642578 c -0.53303,0.09286 -1.04108,0.295016 -1.49219,0.59375 -9.44829,6.101708 -14.09057,5.108952 -20.38867,3.933594 -5.97886,-1.115754 -13.68962,-2.385603 -23.41601,2.583985 L 90.789062,67.839844 c -5.234174,-1.002395 -6.596656,6.926049 -1.328124,7.728515 l 9.013671,1.542969 -5.115234,8.710938 c -2.804929,4.547927 4.15642,8.635859 6.761715,3.970703 l 7.30079,-12.423828 c 8.08538,-4.35224 12.53324,-3.265932 18.8457,-2.087891 6.25182,1.166718 14.31974,1.961595 24.63281,-4.173828 l 2.49805,15.292969 101.04297,14.208989 23.43554,-30.761724 c 55.07949,-9.163653 97.30543,-0.490622 125.88282,21.259766 28.57734,21.750388 46.58779,57.999238 48.09375,114.300778 2.05209,76.71954 -39.74218,125.22738 -100.36524,162.61719 -59.82714,36.76668 -131.95845,55.77826 -204.42578,71.30078 -0.02,0.004 -0.0387,0.0118 -0.0586,0.0156 C 102.78177,448.48406 48.494395,451.65826 0.125,451.625 L 0.09570312,499.80664 C 50.575779,499.84103 107.30075,496.76894 156.93164,486.48828 l 0.082,-0.0215 0.0801,-0.0156 C 230.9535,470.63241 308.61848,450.9319 376.75,409.05273 l 0.0156,-0.0156 0.0137,-0.008 C 445.71784,366.51082 502.57222,299.77673 500.01367,204.12305 498.23469,137.613 474.77741,84.613059 432.94141,52.771484 401.56441,28.890275 361.58154,17.711743 316.55078,18.107422 c -15.01025,0.131905 -30.57941,1.552771 -46.58008,4.214844 z"
           transform="matrix(0.26458333,0,0,0.26458333,0.84566577,164.28701)"
           id="path1395-9" />
        <path
           style="fill:none;stroke:#000000;stroke-width:0.325671px;stroke-linecap:butt;stroke-linejoin:miter;stroke-opacity:1"
           d="M 76.531624,272.25921 Z"
           id="path1076-4"
           inkscape:connector-curvature="0" />
        <path
           id="path900"
           style="fill:#ffd21d;fill-opacity:1;stroke-width:1.00369"
           d="m 70.398463,283.55871 c 1.197775,-1.85345 15.561728,-6.99114 18.137681,-6.38004 3.641564,0.86392 -3.634525,7.52574 -7.168271,8.76874 -3.533746,1.24302 -13.022004,0.78749 -10.96941,-2.3887 z m 13.137762,-85.03917 c -2.441178,0.0171 -4.881743,0.21149 -7.3117,0.63304 l -0.712618,0.13539 c 10.561296,12.58856 20.508335,26.08334 34.349323,35.09864 -0.79893,-10.95231 -3.20487,-21.68895 -4.59713,-32.56391 -7.074047,-1.80789 -14.404338,-3.35435 -21.727875,-3.30316 z m -10.296531,4.14652 c -6.522039,1.07631 -13.551831,2.77316 -18.946645,4.41937 l -0.01188,-0.0367 c -5.358233,1.96566 -12.205777,4.9716 -18.225246,8.16746 -0.435001,7.19183 -0.698426,14.46573 -1.332732,21.66741 -0.02741,0.31995 -0.05635,0.63945 -0.08527,0.95912 -0.01365,0.14693 -0.02786,0.29393 -0.04186,0.4408 -0.499589,5.38106 -1.224912,10.7172 -2.421559,15.91169 l 9.92446,14.31592 c 9.799291,10.46059 20.386254,17.75179 33.605184,4.80022 18.263287,2.35004 22.44553,-9.94287 24.124107,-24.29722 L 99.332164,231.5103 c -4.021127,-3.43019 -7.748201,-7.26098 -11.321272,-11.26495 -0.09779,-0.10907 -0.195405,-0.2178 -0.293005,-0.32711 -0.211656,-0.23833 -0.423426,-0.47679 -0.634071,-0.71624 -4.754507,-5.37953 -9.254979,-11.04294 -13.844116,-16.53594 z m -40.994911,11.22877 -0.650608,0.32557 c -8.776096,4.56789 -15.544654,12.14586 -21.6746446,19.81842 5.2980846,9.55427 9.7028156,19.61514 15.5215326,28.87008 5.765117,-15.64476 5.771437,-32.50535 6.80372,-49.01407 z m 44.442763,33.67288 -4.018875,16.37833 -12.895853,-10.68255 c 5.574438,-2.14789 11.228221,-3.87673 16.914728,-5.69578 z" />
      </g>
      <g
         id="g11137"
         transform="translate(-5.8208336,-4.1145984)">
        <text
           xml:space="preserve"
           transform="matrix(0.26458333,0,0,0.26458333,-30.216044,162.14212)"
           id="text9343"
           style="font-size:173.333px;white-space:pre;shape-inside:url(#rect9345);fill:#ffffff;fill-opacity:1;stroke:none;stroke-width:4"
           x="230.16002"
           y="0"><tspan
             x="-285.74795"
             y="-768.55796"
             id="tspan11311"><tspan
               style="font-family:Montserrat;-inkscape-font-specification:Montserrat;text-align:center;text-anchor:middle"
               id="tspan11309">Pooch</tspan></tspan></text>
        <text
           xml:space="preserve"
           transform="matrix(0.26458333,0,0,0.26458333,8.5036733,218.54137)"
           id="text9503"
           style="font-size:80px;white-space:pre;shape-inside:url(#rect9505);fill:#ffffff;fill-opacity:1;stroke:none;stroke-width:4"
           x="405.03995"
           y="0"><tspan
             x="-412.49023"
             y="-854.33971"
             id="tspan11315"><tspan
               style="font-family:Montserrat;-inkscape-font-specification:Montserrat"
               id="tspan11313">A friend to fetch your </tspan></tspan><tspan
             x="-412.49023"
             y="-753.60222"
             id="tspan11319"><tspan
               style="font-family:Montserrat;-inkscape-font-specification:Montserrat"
               id="tspan11317">data files</tspan></tspan></text>
        <text
           xml:space="preserve"
           transform="matrix(0.26458333,0,0,0.26458333,-31.480405,278.81863)"
           id="text10975"
           style="font-size:56px;white-space:pre;shape-inside:url(#rect10977);fill:none;stroke:#ff0000;stroke-width:4"
           x="405.03995"
           y="0"><tspan
             x="-262.16131"
             y="-876.39795"
             id="tspan11323"><tspan
               style="font-family:Montserrat;-inkscape-font-specification:Montserrat;text-align:center;text-anchor:middle;fill:#ffffff;stroke:none"
               id="tspan11321">fatiando.org/pooch</tspan></tspan></text>
      </g>
    </g>
  </g>
</svg>
