<?xml version="1.0" encoding="UTF-8" standalone="no"?>
<!-- Created with Inkscape (http://www.inkscape.org/) -->

<svg
   width="40.173599mm"
   height="40.173599mm"
   viewBox="0 0 40.173599 40.173599"
   version="1.1"
   id="svg5"
   sodipodi:docname="qr-berkley.svg"
   inkscape:version="1.2.2 (b0a8486541, 2022-12-01)"
   xmlns:inkscape="http://www.inkscape.org/namespaces/inkscape"
   xmlns:sodipodi="http://sodipodi.sourceforge.net/DTD/sodipodi-0.dtd"
   xmlns="http://www.w3.org/2000/svg"
   xmlns:svg="http://www.w3.org/2000/svg">
  <sodipodi:namedview
     id="namedview7"
     pagecolor="#4a4a4a"
     bordercolor="#000000"
     borderopacity="0.25"
     inkscape:showpageshadow="2"
     inkscape:pageopacity="0"
     inkscape:pagecheckerboard="0"
     inkscape:deskcolor="#d1d1d1"
     inkscape:document-units="mm"
     showgrid="false"
     inkscape:zoom="2.0863221"
     inkscape:cx="-38.105334"
     inkscape:cy="142.11612"
     inkscape:window-width="1920"
     inkscape:window-height="1011"
     inkscape:window-x="0"
     inkscape:window-y="32"
     inkscape:window-maximized="1"
     inkscape:current-layer="layer1" />
  <defs
     id="defs2" />
  <g
     inkscape:label="Layer 1"
     inkscape:groupmode="layer"
     id="layer1"
     transform="translate(-11.193798,-146.11598)">
    <rect
       x="11.193798"
       y="146.11598"
       width="40.173599"
       height="40.173599"
       style="fill:#e6e6e6;stroke:none;stroke-width:0.244961"
       id="rect188"
       ry="5.1641622"
       rx="0" />
    <g
       style="fill:#1a1a1a;fill-opacity:1;stroke:none"
       id="g306"
       transform="matrix(0.30107759,0,0,0.30107759,9.000856,143.92304)">
      <path
         d="m 123.6,132 h -3.2 c -0.22091,0 -0.4,-0.17909 -0.4,-0.4 V 128 h 4 v 3.6 c 0,0.22091 -0.17909,0.4 -0.4,0.4 z m -8,0 h -11.2 c -0.22091,0 -0.4,-0.17909 -0.4,-0.4 v -7.2 c 0,-0.22091 -0.17909,-0.4 -0.4,-0.4 H 100 v -7.6 c 0,-0.22091 -0.179086,-0.4 -0.4,-0.4 H 96 v -7.6 c 0,-0.22091 -0.179086,-0.4 -0.4,-0.4 h -3.2 c -0.220914,0 -0.4,-0.17909 -0.4,-0.4 v -3.2 c 0,-0.22091 -0.179086,-0.4 -0.4,-0.4 h -3.2 c -0.220914,0 -0.4,0.17909 -0.4,0.4 v 3.2 c 0,0.22091 -0.179086,0.4 -0.4,0.4 H 84 v -7.6 C 84,100.17909 83.820914,100 83.6,100 H 72.4 C 72.179086,100 72,99.820914 72,99.6 V 96 h 16 v 3.6 c 0,0.220914 0.179086,0.4 0.4,0.4 h 7.2 c 0.220914,0 0.4,-0.179086 0.4,-0.4 V 96.4 C 96,96.179086 96.179086,96 96.4,96 h 7.2 c 0.22091,0 0.4,-0.179086 0.4,-0.4 v -3.2 c 0,-0.220914 0.17909,-0.4 0.4,-0.4 h 3.2 c 0.22091,0 0.4,-0.179086 0.4,-0.4 v -3.2 c 0,-0.220914 -0.17909,-0.4 -0.4,-0.4 h -7.2 c -0.22091,0 -0.4,-0.179086 -0.4,-0.4 v -3.2 c 0,-0.220914 0.17909,-0.4 0.4,-0.4 H 116 v 3.6 c 0,0.220914 -0.17909,0.4 -0.4,0.4 h -3.2 c -0.22091,0 -0.4,0.179086 -0.4,0.4 v 7.2 c 0,0.220914 0.17909,0.4 0.4,0.4 h 3.2 c 0.22091,0 0.4,0.179086 0.4,0.4 v 3.2 c 0,0.220914 0.17909,0.4 0.4,0.4 h 3.2 c 0.22091,0 0.4,-0.179086 0.4,-0.4 v -3.2 c 0,-0.220914 0.17909,-0.4 0.4,-0.4 h 3.2 c 0.22091,0 0.4,-0.179086 0.4,-0.4 V 92 h 3.6 c 0.22091,0 0.4,0.179086 0.4,0.4 v 3.2 c 0,0.220914 0.17909,0.4 0.4,0.4 h 3.2 c 0.22091,0 0.4,0.179086 0.4,0.4 v 7.2 c 0,0.22091 -0.17909,0.4 -0.4,0.4 h -7.2 c -0.22091,0 -0.4,0.17909 -0.4,0.4 v 3.6 h -7.6 c -0.22091,0 -0.4,0.17909 -0.4,0.4 v 7.6 h -11.6 c -0.22091,0 -0.4,0.17909 -0.4,0.4 v 3.2 c 0,0.22091 0.17909,0.4 0.4,0.4 h 11.2 c 0.22091,0 0.4,-0.17909 0.4,-0.4 V 116 h 3.6 c 0.22091,0 0.4,-0.17909 0.4,-0.4 v -3.2 c 0,-0.22091 0.17909,-0.4 0.4,-0.4 h 3.6 v 3.6 c 0,0.22091 0.17909,0.4 0.4,0.4 h 7.2 c 0.22091,0 0.4,0.17909 0.4,0.4 v 3.2 c 0,0.22091 -0.17909,0.4 -0.4,0.4 h -3.2 c -0.22091,0 -0.4,0.17909 -0.4,0.4 v 7.2 c 0,0.22091 -0.17909,0.4 -0.4,0.4 H 124 v -3.6 c 0,-0.22091 -0.17909,-0.4 -0.4,-0.4 h -3.2 c -0.22091,0 -0.4,0.17909 -0.4,0.4 v 3.6 h -3.6 c -0.22091,0 -0.4,0.17909 -0.4,0.4 v 3.2 c 0,0.22091 -0.17909,0.4 -0.4,0.4 z m -28,0 H 84.4 C 84.179086,132 84,131.82091 84,131.6 V 128 h 4 v 3.6 c 0,0.22091 -0.179086,0.4 -0.4,0.4 z m -12,0 H 72.4 C 72.179086,132 72,131.82091 72,131.6 V 128 h 3.6 c 0.220914,0 0.4,0.17909 0.4,0.4 v 3.2 c 0,0.22091 -0.179086,0.4 -0.4,0.4 z m -8,0 h -3.2 c -0.220914,0 -0.4,-0.17909 -0.4,-0.4 v -7.2 c 0,-0.22091 0.179086,-0.4 0.4,-0.4 h 3.2 c 0.220914,0 0.4,-0.17909 0.4,-0.4 v -3.2 C 68,120.17909 67.820914,120 67.6,120 H 64.4 C 64.179086,120 64,119.82091 64,119.6 V 116 h 11.6 c 0.220914,0 0.4,0.17909 0.4,0.4 v 3.2 c 0,0.22091 0.179086,0.4 0.4,0.4 h 7.2 c 0.220914,0 0.4,0.17909 0.4,0.4 v 7.6 h -3.6 c -0.220914,0 -0.4,-0.17909 -0.4,-0.4 v -3.2 c 0,-0.22091 -0.179086,-0.4 -0.4,-0.4 h -7.2 c -0.220914,0 -0.4,0.17909 -0.4,0.4 v 3.6 h -3.6 c -0.220914,0 -0.4,0.17909 -0.4,0.4 v 3.2 c 0,0.22091 -0.179086,0.4 -0.4,0.4 z m -8,0 H 48.4 c -0.220914,0 -0.4,-0.17909 -0.4,-0.4 v -19.2 c 0,-0.22091 0.179086,-0.4 0.4,-0.4 H 52 v 3.6 c 0,0.22091 0.179086,0.4 0.4,0.4 H 56 v 4 h -3.6 c -0.220914,0 -0.4,0.17909 -0.4,0.4 v 3.2 c 0,0.22091 0.179086,0.4 0.4,0.4 h 3.2 c 0.220914,0 0.4,-0.17909 0.4,-0.4 V 120 h 3.6 c 0.220914,0 0.4,0.17909 0.4,0.4 v 11.2 c 0,0.22091 -0.179086,0.4 -0.4,0.4 z m -16,0 H 16.4 c -0.220914,0 -0.4,-0.17909 -0.4,-0.4 v -27.2 c 0,-0.22091 0.179086,-0.4 0.4,-0.4 h 27.2 c 0.220914,0 0.4,0.17909 0.4,0.4 v 27.2 c 0,0.22091 -0.179086,0.4 -0.4,0.4 z m 68.4,-4.4 v -3.2 c 0,-0.22091 -0.17909,-0.4 -0.4,-0.4 h -3.2 c -0.22091,0 -0.4,0.17909 -0.4,0.4 v 3.2 c 0,0.22091 0.17909,0.4 0.4,0.4 h 3.2 c 0.22091,0 0.4,-0.17909 0.4,-0.4 z M 99.6,128 H 88 v -3.6 c 0,-0.22091 0.179086,-0.4 0.4,-0.4 H 100 v 3.6 c 0,0.22091 -0.179086,0.4 -0.4,0.4 z M 40,127.6 V 108.4 C 40,108.17909 39.820914,108 39.6,108 H 20.4 c -0.220914,0 -0.4,0.17909 -0.4,0.4 v 19.2 c 0,0.22091 0.179086,0.4 0.4,0.4 h 19.2 c 0.220914,0 0.4,-0.17909 0.4,-0.4 z M 35.6,124 H 24.4 c -0.220914,0 -0.4,-0.17909 -0.4,-0.4 v -11.2 c 0,-0.22091 0.179086,-0.4 0.4,-0.4 h 11.2 c 0.220914,0 0.4,0.17909 0.4,0.4 v 11.2 c 0,0.22091 -0.179086,0.4 -0.4,0.4 z m 60,-4 H 88.4 C 88.179086,120 88,119.82091 88,119.6 V 116 h 8 v 3.6 c 0,0.22091 -0.179086,0.4 -0.4,0.4 z m -8,-4 H 84.4 C 84.179086,116 84,115.82091 84,115.6 V 112 h 3.6 c 0.220914,0 0.4,0.17909 0.4,0.4 v 3.6 z m -24,0 H 56 v -4 h 3.6 c 0.220914,0 0.4,-0.17909 0.4,-0.4 v -3.2 C 60,108.17909 59.820914,108 59.6,108 H 56 v -4 h 11.6 c 0.220914,0 0.4,0.17909 0.4,0.4 v 3.2 c 0,0.22091 -0.179086,0.4 -0.4,0.4 h -3.2 c -0.220914,0 -0.4,0.17909 -0.4,0.4 v 7.6 z m 68,-4 H 124 v -4 h 7.6 c 0.22091,0 0.4,0.17909 0.4,0.4 v 3.2 c 0,0.22091 -0.17909,0.4 -0.4,0.4 z M 112,111.6 v -11.2 c 0,-0.22091 -0.17909,-0.4 -0.4,-0.4 h -11.2 c -0.22091,0 -0.4,0.17909 -0.4,0.4 v 11.2 c 0,0.22091 0.17909,0.4 0.4,0.4 h 11.2 c 0.22091,0 0.4,-0.17909 0.4,-0.4 z M 83.6,112 H 80.4 C 80.179086,112 80,111.82091 80,111.6 V 108 h 4 v 4 z m -8,0 h -3.2 c -0.220914,0 -0.4,-0.17909 -0.4,-0.4 v -3.2 c 0,-0.22091 0.179086,-0.4 0.4,-0.4 H 76 v 3.6 c 0,0.22091 -0.179086,0.4 -0.4,0.4 z m -20,0 H 52 v -4 h 4 v 4 z m 52,-4 h -3.2 c -0.22091,0 -0.4,-0.17909 -0.4,-0.4 v -3.2 c 0,-0.22091 0.17909,-0.4 0.4,-0.4 h 3.2 c 0.22091,0 0.4,0.17909 0.4,0.4 v 3.2 c 0,0.22091 -0.17909,0.4 -0.4,0.4 z m -28,0 H 76 v -3.6 c 0,-0.22091 0.179086,-0.4 0.4,-0.4 h 3.2 c 0.220914,0 0.4,0.17909 0.4,0.4 v 3.6 z m -28,0 h -3.2 c -0.220914,0 -0.4,-0.17909 -0.4,-0.4 v -7.2 c 0,-0.22091 0.179086,-0.4 0.4,-0.4 h 3.2 c 0.220914,0 0.4,-0.179086 0.4,-0.4 V 84.4 C 52,84.179086 52.179086,84 52.4,84 h 3.2 c 0.220914,0 0.4,0.179086 0.4,0.4 V 104 h -3.6 c -0.220914,0 -0.4,0.17909 -0.4,0.4 v 3.6 z m 16,-8 H 64.4 C 64.179086,100 64,99.820914 64,99.6 V 92.4 C 64,92.179086 64.179086,92 64.4,92 h 3.2 C 67.820914,92 68,91.820914 68,91.6 V 88.4 C 68,88.179086 67.820914,88 67.6,88 H 64.4 C 64.179086,88 64,87.820914 64,87.6 V 84 h 12 v 3.6 c 0,0.220914 0.179086,0.4 0.4,0.4 h 7.2 C 83.820914,88 84,87.820914 84,87.6 V 84.4 C 84,84.179086 83.820914,84 83.6,84 H 76 v -4 h 3.6 C 79.820914,80 80,79.820914 80,79.6 V 76 h 3.6 c 0.220914,0 0.4,0.179086 0.4,0.4 v 3.2 c 0,0.220914 0.179086,0.4 0.4,0.4 h 3.2 c 0.220914,0 0.4,0.179086 0.4,0.4 v 3.2 c 0,0.220914 0.179086,0.4 0.4,0.4 h 3.2 C 91.820914,84 92,83.820914 92,83.6 V 76.4 C 92,76.179086 92.179086,76 92.4,76 h 7.2 c 0.220914,0 0.4,-0.179086 0.4,-0.4 v -3.2 c 0,-0.220914 0.17909,-0.4 0.4,-0.4 h 3.6 v 3.6 c 0,0.220914 0.17909,0.4 0.4,0.4 h 3.6 v 3.6 c 0,0.220914 -0.17909,0.4 -0.4,0.4 H 96.4 C 96.179086,80 96,80.179086 96,80.4 v 7.2 C 96,87.820914 95.820914,88 95.6,88 H 88.4 C 88.179086,88 88,88.179086 88,88.4 V 92 H 72.4 C 72.179086,92 72,92.179086 72,92.4 V 96 H 68.4 C 68.179086,96 68,96.179086 68,96.4 v 3.2 c 0,0.220914 -0.179086,0.4 -0.4,0.4 z m -24,0 H 40.4 C 40.179086,100 40,99.820914 40,99.6 V 96 h 4 v 3.6 c 0,0.220914 -0.179086,0.4 -0.4,0.4 z m -12,0 H 24.4 C 24.179086,100 24,99.820914 24,99.6 V 92.4 C 24,92.179086 24.179086,92 24.4,92 H 28 v 3.6 c 0,0.220914 0.179086,0.4 0.4,0.4 h 3.2 c 0.220914,0 0.4,0.179086 0.4,0.4 v 3.2 c 0,0.220914 -0.179086,0.4 -0.4,0.4 z m -12,0 H 16.4 C 16.179086,100 16,99.820914 16,99.6 V 76.4 C 16,76.179086 16.179086,76 16.4,76 h 3.2 c 0.220914,0 0.4,0.179086 0.4,0.4 v 7.2 c 0,0.220914 0.179086,0.4 0.4,0.4 H 28 v 4 H 20.4 C 20.179086,88 20,88.179086 20,88.4 v 11.2 c 0,0.220914 -0.179086,0.4 -0.4,0.4 z m 72,-4 H 88 v -4 h 3.6 c 0.220914,0 0.4,0.179086 0.4,0.4 v 3.2 c 0,0.220914 -0.179086,0.4 -0.4,0.4 z m -44,0 H 44 v -4 h 3.6 c 0.220914,0 0.4,0.179086 0.4,0.4 v 3.2 c 0,0.220914 -0.179086,0.4 -0.4,0.4 z m -8,0 H 36.4 C 36.179086,96 36,95.820914 36,95.6 V 92.4 C 36,92.179086 36.179086,92 36.4,92 H 40 v 4 z m 84,-4 h -3.2 C 120.17909,92 120,91.820914 120,91.6 V 84.4 C 120,84.179086 119.82091,84 119.6,84 H 116 v -3.6 c 0,-0.220914 0.17909,-0.4 0.4,-0.4 h 7.6 v 12 z m -80,0 H 40 V 88.4 C 40,88.179086 40.179086,88 40.4,88 h 3.2 c 0.220914,0 0.4,0.179086 0.4,0.4 V 92 Z m -12,0 H 28 v -4 h 4 v 3.6 c 0,0.220914 -0.179086,0.4 -0.4,0.4 z m 100,-4 h -3.2 c -0.22091,0 -0.4,-0.179086 -0.4,-0.4 v -3.2 c 0,-0.220914 0.17909,-0.4 0.4,-0.4 h 3.2 c 0.22091,0 0.4,0.179086 0.4,0.4 v 3.2 c 0,0.220914 -0.17909,0.4 -0.4,0.4 z m -96,0 H 32 V 84.4 C 32,84.179086 31.820914,84 31.6,84 H 28 V 76.4 C 28,76.179086 28.179086,76 28.4,76 h 3.2 c 0.220914,0 0.4,0.179086 0.4,0.4 v 3.2 c 0,0.220914 0.179086,0.4 0.4,0.4 h 3.2 c 0.220914,0 0.4,0.179086 0.4,0.4 v 7.2 c 0,0.220914 -0.179086,0.4 -0.4,0.4 z m 28,-4 H 60.4 C 60.179086,84 60,83.820914 60,83.6 V 76.4 C 60,76.179086 59.820914,76 59.6,76 H 56.4 C 56.179086,76 56,76.179086 56,76.4 v 3.2 C 56,79.820914 55.820914,80 55.6,80 H 44 V 76.4 C 44,76.179086 43.820914,76 43.6,76 H 40.4 C 40.179086,76 40,75.820914 40,75.6 V 72.4 C 40,72.179086 40.179086,72 40.4,72 H 48 v 3.6 c 0,0.220914 0.179086,0.4 0.4,0.4 h 3.2 C 51.820914,76 52,75.820914 52,75.6 V 72 h 15.6 c 0.220914,0 0.4,0.179086 0.4,0.4 v 3.2 C 68,75.820914 67.820914,76 67.6,76 H 64.4 C 64.179086,76 64,76.179086 64,76.4 V 84 Z m -20,0 H 40.4 C 40.179086,84 40,83.820914 40,83.6 V 80.4 C 40,80.179086 40.179086,80 40.4,80 H 44 v 3.6 c 0,0.220914 -0.179086,0.4 -0.4,0.4 z m 84,-4 H 124 v -4 h 3.6 c 0.22091,0 0.4,0.179086 0.4,0.4 v 3.2 c 0,0.220914 -0.17909,0.4 -0.4,0.4 z m -52,0 H 72.4 C 72.179086,80 72,79.820914 72,79.6 V 76.4 C 72,76.179086 72.179086,76 72.4,76 H 76 v 4 z m 48,-4 H 108 v -4 h 3.6 c 0.22091,0 0.4,-0.179086 0.4,-0.4 v -3.2 c 0,-0.220914 0.17909,-0.4 0.4,-0.4 h 3.6 v 3.6 c 0,0.220914 0.17909,0.4 0.4,0.4 h 7.2 c 0.22091,0 0.4,0.179086 0.4,0.4 V 76 Z m -44,0 H 76 V 72.4 C 76,72.179086 76.179086,72 76.4,72 h 3.2 c 0.220914,0 0.4,0.179086 0.4,0.4 V 76 Z m 52,-4 h -3.2 c -0.22091,0 -0.4,-0.179086 -0.4,-0.4 v -3.2 c 0,-0.220914 0.17909,-0.4 0.4,-0.4 h 3.2 c 0.22091,0 0.4,0.179086 0.4,0.4 v 3.2 c 0,0.220914 -0.17909,0.4 -0.4,0.4 z m -24,0 H 104 v -3.6 c 0,-0.220914 0.17909,-0.4 0.4,-0.4 h 3.2 c 0.22091,0 0.4,0.179086 0.4,0.4 V 72 Z m -12,0 H 88.4 C 88.179086,72 88,71.820914 88,71.6 V 68 h 8 v 3.6 c 0,0.220914 -0.179086,0.4 -0.4,0.4 z m -44,0 H 48 v -8 h 11.6 c 0.220914,0 0.4,0.179086 0.4,0.4 v 3.2 C 60,67.820914 59.820914,68 59.6,68 H 52.4 C 52.179086,68 52,68.179086 52,68.4 V 72 Z m -20,0 H 20.4 C 20.179086,72 20,71.820914 20,71.6 V 64.4 C 20,64.179086 20.179086,64 20.4,64 H 24 v 3.6 c 0,0.220914 0.179086,0.4 0.4,0.4 h 7.2 c 0.220914,0 0.4,0.179086 0.4,0.4 v 3.2 c 0,0.220914 -0.179086,0.4 -0.4,0.4 z m 92,-4 H 116 v -7.6 c 0,-0.220914 0.17909,-0.4 0.4,-0.4 h 3.2 c 0.22091,0 0.4,0.179086 0.4,0.4 v 3.2 c 0,0.220914 0.17909,0.4 0.4,0.4 h 3.6 v 3.6 c 0,0.220914 -0.17909,0.4 -0.4,0.4 z m -24,0 H 96 V 56 h 4 v 11.6 c 0,0.220914 -0.179086,0.4 -0.4,0.4 z m -12,0 H 72.4 C 72.179086,68 72,67.820914 72,67.6 V 64 h 16 v 4 z m -20,0 H 64.4 C 64.179086,68 64,67.820914 64,67.6 V 60.4 C 64,60.179086 64.179086,60 64.4,60 h 3.2 C 67.820914,60 68,59.820914 68,59.6 V 56.4 C 68,56.179086 67.820914,56 67.6,56 H 64.4 C 64.179086,56 64,55.820914 64,55.6 V 52 h 7.6 c 0.220914,0 0.4,0.179086 0.4,0.4 v 3.2 c 0,0.220914 0.179086,0.4 0.4,0.4 H 83.6 C 83.820914,56 84,55.820914 84,55.6 V 52.4 C 84,52.179086 83.820914,52 83.6,52 H 76.4 C 76.179086,52 76,51.820914 76,51.6 V 48.4 C 76,48.179086 75.820914,48 75.6,48 H 72.4 C 72.179086,48 72,47.820914 72,47.6 V 40 h 4 v 3.6 c 0,0.220914 0.179086,0.4 0.4,0.4 h 3.2 C 79.820914,44 80,43.820914 80,43.6 V 40 h 4 v 7.6 c 0,0.220914 0.179086,0.4 0.4,0.4 h 3.2 c 0.220914,0 0.4,0.179086 0.4,0.4 v 7.2 c 0,0.220914 0.179086,0.4 0.4,0.4 H 92 v 7.6 C 92,63.820914 91.820914,64 91.6,64 H 88 V 60.4 C 88,60.179086 87.820914,60 87.6,60 H 72.4 C 72.179086,60 72,60.179086 72,60.4 V 64 H 68.4 C 68.179086,64 68,64.179086 68,64.4 v 3.2 c 0,0.220914 -0.179086,0.4 -0.4,0.4 z m -24,0 H 40.4 C 40.179086,68 40,67.820914 40,67.6 V 64 h 4 v 3.6 c 0,0.220914 -0.179086,0.4 -0.4,0.4 z m 84,-4 H 124 v -3.6 c 0,-0.220914 0.17909,-0.4 0.4,-0.4 h 3.2 c 0.22091,0 0.4,0.179086 0.4,0.4 v 3.2 c 0,0.220914 -0.17909,0.4 -0.4,0.4 z m -16,0 h -7.2 C 104.17909,64 104,63.820914 104,63.6 V 56.4 C 104,56.179086 103.82091,56 103.6,56 H 100 V 52.4 C 100,52.179086 99.820914,52 99.6,52 H 96 v -4 h 7.6 c 0.22091,0 0.4,0.179086 0.4,0.4 v 3.2 c 0,0.220914 0.17909,0.4 0.4,0.4 h 3.2 c 0.22091,0 0.4,-0.179086 0.4,-0.4 v -3.2 c 0,-0.220914 0.17909,-0.4 0.4,-0.4 h 3.2 c 0.22091,0 0.4,0.179086 0.4,0.4 v 3.2 c 0,0.220914 0.17909,0.4 0.4,0.4 h 3.6 v 3.6 c 0,0.220914 -0.17909,0.4 -0.4,0.4 h -7.2 c -0.22091,0 -0.4,0.179086 -0.4,0.4 v 3.2 c 0,0.220914 0.17909,0.4 0.4,0.4 h 3.2 c 0.22091,0 0.4,0.179086 0.4,0.4 v 3.2 c 0,0.220914 -0.17909,0.4 -0.4,0.4 z m -64,0 H 44 V 60.4 C 44,60.179086 43.820914,60 43.6,60 H 40.4 C 40.179086,60 40,60.179086 40,60.4 V 64 H 32.4 C 32.179086,64 32,63.820914 32,63.6 V 60 h 3.6 C 35.820914,60 36,59.820914 36,59.6 V 56.4 C 36,56.179086 36.179086,56 36.4,56 h 7.2 C 43.820914,56 44,55.820914 44,55.6 V 52.4 C 44,52.179086 43.820914,52 43.6,52 H 40.4 C 40.179086,52 40,51.820914 40,51.6 V 48.4 C 40,48.179086 40.179086,48 40.4,48 H 51.6 C 51.820914,48 52,47.820914 52,47.6 V 44 h 3.6 C 55.820914,44 56,43.820914 56,43.6 V 40 h 4 v 3.6 c 0,0.220914 0.179086,0.4 0.4,0.4 H 64 v 8 H 60 V 48.4 C 60,48.179086 59.820914,48 59.6,48 H 56.4 C 56.179086,48 56,48.179086 56,48.4 V 52 H 52.4 C 52.179086,52 52,52.179086 52,52.4 v 7.2 C 52,59.820914 51.820914,60 51.6,60 H 48.4 C 48.179086,60 48,60.179086 48,60.4 V 64 Z m -20,0 H 24 v -4 h 4 v 3.6 c 0,0.220914 -0.179086,0.4 -0.4,0.4 z m 32,-4 H 56.4 C 56.179086,60 56,59.820914 56,59.6 V 52 h 4 v 7.6 c 0,0.220914 -0.179086,0.4 -0.4,0.4 z m -28,0 H 28 V 56.4 C 28,56.179086 28.179086,56 28.4,56 h 3.2 c 0.220914,0 0.4,0.179086 0.4,0.4 V 60 Z m -8,0 H 16.4 C 16.179086,60 16,59.820914 16,59.6 V 56.4 C 16,56.179086 16.179086,56 16.4,56 h 3.2 C 19.820914,56 20,55.820914 20,55.6 V 52.4 C 20,52.179086 19.820914,52 19.6,52 H 16.4 C 16.179086,52 16,51.820914 16,51.6 V 48.4 C 16,48.179086 16.179086,48 16.4,48 h 19.2 c 0.220914,0 0.4,0.179086 0.4,0.4 v 3.2 C 36,51.820914 35.820914,52 35.6,52 H 24.4 C 24.179086,52 24,52.179086 24,52.4 V 60 Z m 108,-4 h -3.2 C 128.17909,56 128,55.820914 128,55.6 V 52 h 3.6 c 0.22091,0 0.4,0.179086 0.4,0.4 v 3.2 c 0,0.220914 -0.17909,0.4 -0.4,0.4 z m -36,0 H 92 V 52.4 C 92,52.179086 92.179086,52 92.4,52 H 96 v 4 z m 32,-4 h -3.2 c -0.22091,0 -0.4,-0.179086 -0.4,-0.4 v -3.2 c 0,-0.220914 0.17909,-0.4 0.4,-0.4 h 3.2 c 0.22091,0 0.4,0.179086 0.4,0.4 V 52 Z m -8,0 H 116 v -3.6 c 0,-0.220914 0.17909,-0.4 0.4,-0.4 h 3.2 c 0.22091,0 0.4,0.179086 0.4,0.4 v 3.2 c 0,0.220914 -0.17909,0.4 -0.4,0.4 z m -24,-4 H 92.4 C 92.179086,48 92,47.820914 92,47.6 V 44 h 4 v 4 z m 36,-4 H 104.4 C 104.17909,44 104,43.820914 104,43.6 V 16.4 c 0,-0.220914 0.17909,-0.4 0.4,-0.4 h 27.2 c 0.22091,0 0.4,0.179086 0.4,0.4 v 27.2 c 0,0.220914 -0.17909,0.4 -0.4,0.4 z m -32,0 H 96 V 40.4 C 96,40.179086 96.179086,40 96.4,40 h 3.2 c 0.220914,0 0.4,0.179086 0.4,0.4 v 3.2 c 0,0.220914 -0.179086,0.4 -0.4,0.4 z m -8,0 H 88.4 C 88.179086,44 88,43.820914 88,43.6 V 40 h 3.6 c 0.220914,0 0.4,0.179086 0.4,0.4 V 44 Z m -24,0 H 64 V 40.4 C 64,40.179086 63.820914,40 63.6,40 H 60 V 36.4 C 60,36.179086 60.179086,36 60.4,36 H 72 v 4 H 68.4 C 68.179086,40 68,40.179086 68,40.4 v 3.2 c 0,0.220914 -0.179086,0.4 -0.4,0.4 z m -16,0 H 48.4 C 48.179086,44 48,43.820914 48,43.6 V 36.4 C 48,36.179086 48.179086,36 48.4,36 h 3.2 C 51.820914,36 52,35.820914 52,35.6 V 32.4 C 52,32.179086 51.820914,32 51.6,32 H 48.4 C 48.179086,32 48,31.820914 48,31.6 V 28.4 C 48,28.179086 48.179086,28 48.4,28 h 11.2 c 0.220914,0 0.4,0.179086 0.4,0.4 v 3.2 C 60,31.820914 59.820914,32 59.6,32 H 56.4 C 56.179086,32 56,32.179086 56,32.4 V 40 H 52.4 C 52.179086,40 52,40.179086 52,40.4 V 44 Z m -8,0 H 16.4 C 16.179086,44 16,43.820914 16,43.6 V 16.4 C 16,16.179086 16.179086,16 16.4,16 h 27.2 c 0.220914,0 0.4,0.179086 0.4,0.4 V 43.6 C 44,43.820914 43.820914,44 43.6,44 Z M 128,39.6 V 20.4 c 0,-0.220914 -0.17909,-0.4 -0.4,-0.4 h -19.2 c -0.22091,0 -0.4,0.179086 -0.4,0.4 v 19.2 c 0,0.220914 0.17909,0.4 0.4,0.4 h 19.2 c 0.22091,0 0.4,-0.179086 0.4,-0.4 z M 87.6,40 H 84 V 32.4 C 84,32.179086 83.820914,32 83.6,32 H 76 v -4 h 3.6 C 79.820914,28 80,27.820914 80,27.6 V 24.4 C 80,24.179086 79.820914,24 79.6,24 H 76 v -4 h 7.6 c 0.220914,0 0.4,0.179086 0.4,0.4 v 7.2 c 0,0.220914 0.179086,0.4 0.4,0.4 h 15.2 c 0.220914,0 0.4,0.179086 0.4,0.4 v 3.2 c 0,0.220914 -0.179086,0.4 -0.4,0.4 H 96.4 C 96.179086,32 96,32.179086 96,32.4 v 3.2 C 96,35.820914 95.820914,36 95.6,36 H 88.4 C 88.179086,36 88,36.179086 88,36.4 V 40 Z m -8,0 H 76 v -4 h 3.6 c 0.220914,0 0.4,0.179086 0.4,0.4 V 40 Z M 40,39.6 V 20.4 C 40,20.179086 39.820914,20 39.6,20 H 20.4 C 20.179086,20 20,20.179086 20,20.4 v 19.2 c 0,0.220914 0.179086,0.4 0.4,0.4 H 39.6 C 39.820914,40 40,39.820914 40,39.6 Z M 123.6,36 H 112.4 C 112.17909,36 112,35.820914 112,35.6 V 24.4 c 0,-0.220914 0.17909,-0.4 0.4,-0.4 h 11.2 c 0.22091,0 0.4,0.179086 0.4,0.4 v 11.2 c 0,0.220914 -0.17909,0.4 -0.4,0.4 z m -48,0 H 72 v -4 h 4 v 4 z m -40,0 H 24.4 C 24.179086,36 24,35.820914 24,35.6 V 24.4 C 24,24.179086 24.179086,24 24.4,24 h 11.2 c 0.220914,0 0.4,0.179086 0.4,0.4 v 11.2 c 0,0.220914 -0.179086,0.4 -0.4,0.4 z m 36,-4 H 64.4 C 64.179086,32 64,31.820914 64,31.6 V 24.4 C 64,24.179086 64.179086,24 64.4,24 h 3.2 c 0.220914,0 0.4,0.179086 0.4,0.4 v 3.2 c 0,0.220914 0.179086,0.4 0.4,0.4 H 72 v 4 z m 4,-4 H 72 V 24.4 C 72,24.179086 72.179086,24 72.4,24 H 76 v 4 z m 16,-4 H 88.4 C 88.179086,24 88,23.820914 88,23.6 V 20.4 C 88,20.179086 88.179086,20 88.4,20 H 92 v 3.6 c 0,0.220914 -0.179086,0.4 -0.4,0.4 z m -32,0 H 56.4 C 56.179086,24 56,23.820914 56,23.6 V 16.4 C 56,16.179086 56.179086,16 56.4,16 h 3.2 c 0.220914,0 0.4,0.179086 0.4,0.4 v 7.2 c 0,0.220914 -0.179086,0.4 -0.4,0.4 z m -8,0 H 48.4 C 48.179086,24 48,23.820914 48,23.6 V 20.4 C 48,20.179086 48.179086,20 48.4,20 h 3.2 c 0.220914,0 0.4,0.179086 0.4,0.4 v 3.2 c 0,0.220914 -0.179086,0.4 -0.4,0.4 z m 44,-4 H 92 V 16.4 C 92,16.179086 92.179086,16 92.4,16 h 3.2 c 0.220914,0 0.4,0.179086 0.4,0.4 v 3.2 c 0,0.220914 -0.179086,0.4 -0.4,0.4 z m -20,0 H 72.4 C 72.179086,20 72,19.820914 72,19.6 V 16.4 C 72,16.179086 72.179086,16 72.4,16 h 3.2 c 0.220914,0 0.4,0.179086 0.4,0.4 V 20 Z m -8,0 H 64.4 C 64.179086,20 64,19.820914 64,19.6 V 16.4 C 64,16.179086 64.179086,16 64.4,16 h 3.2 c 0.220914,0 0.4,0.179086 0.4,0.4 v 3.2 c 0,0.220914 -0.179086,0.4 -0.4,0.4 z"
         id="path304"
         style="fill:#1a1a1a;fill-opacity:1" />
    </g>
  </g>
</svg>
