<?xml version="1.0" encoding="UTF-8" standalone="no"?>
<!-- Created with Inkscape (http://www.inkscape.org/) -->

<svg
   width="40.173599mm"
   height="40.173599mm"
   viewBox="0 0 40.173599 40.173599"
   version="1.1"
   id="svg5"
   sodipodi:docname="qr-keeling.svg"
   inkscape:version="1.2.2 (b0a8486541, 2022-12-01)"
   xmlns:inkscape="http://www.inkscape.org/namespaces/inkscape"
   xmlns:sodipodi="http://sodipodi.sourceforge.net/DTD/sodipodi-0.dtd"
   xmlns="http://www.w3.org/2000/svg"
   xmlns:svg="http://www.w3.org/2000/svg">
  <sodipodi:namedview
     id="namedview7"
     pagecolor="#4a4a4a"
     bordercolor="#000000"
     borderopacity="0.25"
     inkscape:showpageshadow="2"
     inkscape:pageopacity="0"
     inkscape:pagecheckerboard="0"
     inkscape:deskcolor="#d1d1d1"
     inkscape:document-units="mm"
     showgrid="false"
     inkscape:zoom="2.0863221"
     inkscape:cx="148.10752"
     inkscape:cy="120.54706"
     inkscape:window-width="1920"
     inkscape:window-height="1011"
     inkscape:window-x="0"
     inkscape:window-y="32"
     inkscape:window-maximized="1"
     inkscape:current-layer="layer1" />
  <defs
     id="defs2" />
  <g
     inkscape:label="Layer 1"
     inkscape:groupmode="layer"
     id="layer1"
     transform="translate(-11.193798,-146.11598)">
    <rect
       x="11.193798"
       y="146.11598"
       width="40.173599"
       height="40.173599"
       style="fill:#e6e6e6;stroke:none;stroke-width:0.244961"
       id="rect188"
       ry="5.1641622"
       rx="0" />
    <g
       style="fill:#1a1a1a;stroke:none"
       id="g192"
       transform="matrix(0.264583,0,0,0.264583,9.5847925,144.50698)">
      <path
         d="m 143.6,148 h -3.2 c -0.22091,0 -0.4,-0.17909 -0.4,-0.4 v -3.2 c 0,-0.22091 0.17909,-0.4 0.4,-0.4 h 3.2 c 0.22091,0 0.4,0.17909 0.4,0.4 v 3.2 c 0,0.22091 -0.17909,0.4 -0.4,0.4 z m -12,0 h -3.2 c -0.22091,0 -0.4,-0.17909 -0.4,-0.4 V 144 h 3.6 c 0.22091,0 0.4,0.17909 0.4,0.4 v 3.2 c 0,0.22091 -0.17909,0.4 -0.4,0.4 z m -12,0 h -7.2 c -0.22091,0 -0.4,-0.17909 -0.4,-0.4 v -3.2 c 0,-0.22091 -0.17909,-0.4 -0.4,-0.4 h -7.2 c -0.22091,0 -0.4,0.17909 -0.4,0.4 v 3.2 c 0,0.22091 -0.17909,0.4 -0.4,0.4 h -3.2 c -0.22091,0 -0.4,-0.17909 -0.4,-0.4 v -3.2 c 0,-0.22091 -0.179086,-0.4 -0.4,-0.4 H 96 v -3.6 c 0,-0.22091 0.179086,-0.4 0.4,-0.4 h 15.2 c 0.22091,0 0.4,-0.17909 0.4,-0.4 v -3.2 c 0,-0.22091 -0.17909,-0.4 -0.4,-0.4 h -11.2 c -0.22091,0 -0.4,-0.17909 -0.4,-0.4 v -3.2 c 0,-0.22091 -0.179086,-0.4 -0.4,-0.4 h -3.2 c -0.220914,0 -0.4,-0.17909 -0.4,-0.4 v -11.2 c 0,-0.22091 -0.179086,-0.4 -0.4,-0.4 h -3.2 c -0.220914,0 -0.4,0.17909 -0.4,0.4 v 3.2 c 0,0.22091 -0.179086,0.4 -0.4,0.4 h -3.2 c -0.220914,0 -0.4,0.17909 -0.4,0.4 v 7.6 h -4 v -3.6 c 0,-0.22091 -0.179086,-0.4 -0.4,-0.4 h -3.2 c -0.220914,0 -0.4,0.17909 -0.4,0.4 v 3.6 h -4 v -7.6 c 0,-0.22091 0.179086,-0.4 0.4,-0.4 h 7.2 c 0.220914,0 0.4,-0.17909 0.4,-0.4 v -7.2 C 84,116.17909 83.820914,116 83.6,116 H 80.4 C 80.179086,116 80,115.82091 80,115.6 V 112 h 8 v 3.6 c 0,0.22091 0.179086,0.4 0.4,0.4 h 11.2 c 0.220914,0 0.4,-0.17909 0.4,-0.4 v -3.2 c 0,-0.22091 -0.179086,-0.4 -0.4,-0.4 H 96.4 C 96.179086,112 96,111.82091 96,111.6 V 108 h 3.6 c 0.220914,0 0.4,-0.17909 0.4,-0.4 V 104 h 7.6 c 0.22091,0 0.4,0.17909 0.4,0.4 v 3.2 c 0,0.22091 0.17909,0.4 0.4,0.4 h 3.2 c 0.22091,0 0.4,0.17909 0.4,0.4 v 3.6 h -7.6 c -0.22091,0 -0.4,0.17909 -0.4,0.4 v 3.2 c 0,0.22091 0.17909,0.4 0.4,0.4 h 3.2 c 0.22091,0 0.4,0.17909 0.4,0.4 v 15.2 c 0,0.22091 0.17909,0.4 0.4,0.4 h 3.2 c 0.22091,0 0.4,-0.17909 0.4,-0.4 V 112 h 3.6 c 0.22091,0 0.4,-0.17909 0.4,-0.4 v -3.2 c 0,-0.22091 0.17909,-0.4 0.4,-0.4 h 3.2 c 0.22091,0 0.4,0.17909 0.4,0.4 v 3.2 c 0,0.22091 0.17909,0.4 0.4,0.4 h 3.2 c 0.22091,0 0.4,-0.17909 0.4,-0.4 V 104 h 3.6 c 0.22091,0 0.4,0.17909 0.4,0.4 v 3.2 c 0,0.22091 0.17909,0.4 0.4,0.4 h 3.2 c 0.22091,0 0.4,-0.17909 0.4,-0.4 v -3.2 c 0,-0.22091 0.17909,-0.4 0.4,-0.4 h 3.6 v 15.6 c 0,0.22091 -0.17909,0.4 -0.4,0.4 h -3.2 c -0.22091,0 -0.4,0.17909 -0.4,0.4 v 15.2 c 0,0.22091 0.17909,0.4 0.4,0.4 h 3.2 c 0.22091,0 0.4,0.17909 0.4,0.4 v 3.2 c 0,0.22091 -0.17909,0.4 -0.4,0.4 h -7.2 c -0.22091,0 -0.4,0.17909 -0.4,0.4 v 3.6 h -3.6 c -0.22091,0 -0.4,-0.17909 -0.4,-0.4 v -7.2 c 0,-0.22091 -0.17909,-0.4 -0.4,-0.4 H 120 v -3.6 c 0,-0.22091 -0.17909,-0.4 -0.4,-0.4 h -3.2 c -0.22091,0 -0.4,0.17909 -0.4,0.4 v 3.2 c 0,0.22091 0.17909,0.4 0.4,0.4 h 3.6 v 11.6 c 0,0.22091 -0.17909,0.4 -0.4,0.4 z m -24,0 h -3.2 c -0.220914,0 -0.4,-0.17909 -0.4,-0.4 v -3.2 c 0,-0.22091 0.179086,-0.4 0.4,-0.4 H 96 v 3.6 c 0,0.22091 -0.179086,0.4 -0.4,0.4 z m -12,0 H 60.4 c -0.220914,0 -0.4,-0.17909 -0.4,-0.4 v -3.2 c 0,-0.22091 0.179086,-0.4 0.4,-0.4 h 11.2 c 0.220914,0 0.4,-0.17909 0.4,-0.4 v -3.2 c 0,-0.22091 0.179086,-0.4 0.4,-0.4 h 11.2 c 0.220914,0 0.4,-0.17909 0.4,-0.4 V 136 h 3.6 c 0.220914,0 0.4,-0.17909 0.4,-0.4 V 132 h 3.6 c 0.220914,0 0.4,0.17909 0.4,0.4 v 7.2 c 0,0.22091 -0.179086,0.4 -0.4,0.4 h -3.2 c -0.220914,0 -0.4,0.17909 -0.4,0.4 v 3.2 c 0,0.22091 -0.179086,0.4 -0.4,0.4 h -3.2 c -0.220914,0 -0.4,0.17909 -0.4,0.4 v 3.2 c 0,0.22091 -0.179086,0.4 -0.4,0.4 z m -28,0 h -7.2 c -0.220914,0 -0.4,-0.17909 -0.4,-0.4 v -7.2 c 0,-0.22091 0.179086,-0.4 0.4,-0.4 h 3.2 c 0.220914,0 0.4,-0.17909 0.4,-0.4 v -3.2 c 0,-0.22091 -0.179086,-0.4 -0.4,-0.4 h -3.2 c -0.220914,0 -0.4,-0.17909 -0.4,-0.4 v -3.2 c 0,-0.22091 0.179086,-0.4 0.4,-0.4 h 7.2 c 0.220914,0 0.4,-0.17909 0.4,-0.4 v -3.2 C 56,128.17909 55.820914,128 55.6,128 H 52.4 C 52.179086,128 52,127.82091 52,127.6 V 124 h 8 v 3.6 c 0,0.22091 0.179086,0.4 0.4,0.4 h 3.2 c 0.220914,0 0.4,-0.17909 0.4,-0.4 V 124 h 3.6 c 0.220914,0 0.4,-0.17909 0.4,-0.4 V 120 h 4 v 7.6 c 0,0.22091 -0.179086,0.4 -0.4,0.4 h -3.2 c -0.220914,0 -0.4,0.17909 -0.4,0.4 v 3.2 c 0,0.22091 0.179086,0.4 0.4,0.4 H 76 v 3.6 c 0,0.22091 -0.179086,0.4 -0.4,0.4 H 56.4 c -0.220914,0 -0.4,0.17909 -0.4,0.4 v 11.2 c 0,0.22091 -0.179086,0.4 -0.4,0.4 z m -12,0 H 16.4 c -0.220914,0 -0.4,-0.17909 -0.4,-0.4 v -27.2 c 0,-0.22091 0.179086,-0.4 0.4,-0.4 h 27.2 c 0.220914,0 0.4,0.17909 0.4,0.4 v 27.2 c 0,0.22091 -0.179086,0.4 -0.4,0.4 z M 40,143.6 V 124.4 C 40,124.17909 39.820914,124 39.6,124 H 20.4 c -0.220914,0 -0.4,0.17909 -0.4,0.4 v 19.2 c 0,0.22091 0.179086,0.4 0.4,0.4 h 19.2 c 0.220914,0 0.4,-0.17909 0.4,-0.4 z M 147.6,140 h -7.2 c -0.22091,0 -0.4,-0.17909 -0.4,-0.4 v -7.2 c 0,-0.22091 0.17909,-0.4 0.4,-0.4 h 7.2 c 0.22091,0 0.4,0.17909 0.4,0.4 v 7.2 c 0,0.22091 -0.17909,0.4 -0.4,0.4 z m -112,0 H 24.4 c -0.220914,0 -0.4,-0.17909 -0.4,-0.4 v -11.2 c 0,-0.22091 0.179086,-0.4 0.4,-0.4 h 11.2 c 0.220914,0 0.4,0.17909 0.4,0.4 v 11.2 c 0,0.22091 -0.179086,0.4 -0.4,0.4 z m 48,-4 H 80.4 C 80.179086,136 80,135.82091 80,135.6 V 132 h 4 v 4 z m 60,-8 h -3.2 c -0.22091,0 -0.4,-0.17909 -0.4,-0.4 v -7.2 c 0,-0.22091 0.17909,-0.4 0.4,-0.4 h 3.6 v 7.6 c 0,0.22091 -0.17909,0.4 -0.4,0.4 z M 128,127.6 v -11.2 c 0,-0.22091 -0.17909,-0.4 -0.4,-0.4 h -11.2 c -0.22091,0 -0.4,0.17909 -0.4,0.4 v 11.2 c 0,0.22091 0.17909,0.4 0.4,0.4 h 11.2 c 0.22091,0 0.4,-0.17909 0.4,-0.4 z m -4.4,-3.6 h -3.2 c -0.22091,0 -0.4,-0.17909 -0.4,-0.4 v -3.2 c 0,-0.22091 0.17909,-0.4 0.4,-0.4 h 3.2 c 0.22091,0 0.4,0.17909 0.4,0.4 v 3.2 c 0,0.22091 -0.17909,0.4 -0.4,0.4 z M 104,123.6 v -3.2 c 0,-0.22091 -0.17909,-0.4 -0.4,-0.4 h -3.2 c -0.22091,0 -0.4,0.17909 -0.4,0.4 v 3.2 c 0,0.22091 0.17909,0.4 0.4,0.4 h 3.2 c 0.22091,0 0.4,-0.17909 0.4,-0.4 z M 63.6,124 H 60 v -3.6 c 0,-0.22091 0.179086,-0.4 0.4,-0.4 H 64 v 4 z m -12,0 h -3.2 c -0.220914,0 -0.4,-0.17909 -0.4,-0.4 v -7.2 c 0,-0.22091 0.179086,-0.4 0.4,-0.4 H 56 v 3.6 c 0,0.22091 -0.179086,0.4 -0.4,0.4 h -3.2 c -0.220914,0 -0.4,0.17909 -0.4,0.4 v 3.6 z m 96,-4 H 144 v -3.6 c 0,-0.22091 0.17909,-0.4 0.4,-0.4 h 3.2 c 0.22091,0 0.4,0.17909 0.4,0.4 v 3.2 c 0,0.22091 -0.17909,0.4 -0.4,0.4 z m -72,0 H 72 v -4 h 3.6 c 0.220914,0 0.4,0.17909 0.4,0.4 v 3.2 c 0,0.22091 -0.179086,0.4 -0.4,0.4 z m -8,0 H 64 v -3.6 c 0,-0.22091 0.179086,-0.4 0.4,-0.4 H 68 v 4 z m 4,-4 H 68 v -8 h 3.6 c 0.220914,0 0.4,0.17909 0.4,0.4 v 7.6 z m -12,0 H 56 v -3.6 c 0,-0.22091 0.179086,-0.4 0.4,-0.4 H 60 v 3.6 c 0,0.22091 -0.179086,0.4 -0.4,0.4 z m -16,0 H 40.4 C 40.179086,116 40,115.82091 40,115.6 V 112 h 4 v 3.6 c 0,0.22091 -0.179086,0.4 -0.4,0.4 z m -8,0 H 32.4 C 32.179086,116 32,115.82091 32,115.6 V 112 h 4 v 3.6 c 0,0.22091 -0.179086,0.4 -0.4,0.4 z m -8,0 h -3.2 c -0.220914,0 -0.4,-0.17909 -0.4,-0.4 v -3.2 C 24,112.17909 23.820914,112 23.6,112 H 20 v -3.6 c 0,-0.22091 -0.179086,-0.4 -0.4,-0.4 h -3.2 c -0.220914,0 -0.4,-0.17909 -0.4,-0.4 v -3.2 c 0,-0.22091 0.179086,-0.4 0.4,-0.4 h 3.2 c 0.220914,0 0.4,-0.17909 0.4,-0.4 v -3.2 c 0,-0.22091 0.179086,-0.4 0.4,-0.4 H 24 v 7.6 c 0,0.22091 0.179086,0.4 0.4,0.4 h 7.2 c 0.220914,0 0.4,0.17909 0.4,0.4 v 3.6 h -3.6 c -0.220914,0 -0.4,0.17909 -0.4,0.4 v 3.2 c 0,0.22091 -0.179086,0.4 -0.4,0.4 z m -8,0 h -3.2 c -0.220914,0 -0.4,-0.17909 -0.4,-0.4 v -3.2 c 0,-0.22091 0.179086,-0.4 0.4,-0.4 H 20 v 3.6 c 0,0.22091 -0.179086,0.4 -0.4,0.4 z m 128,-4 h -7.2 c -0.22091,0 -0.4,-0.17909 -0.4,-0.4 v -3.2 c 0,-0.22091 0.17909,-0.4 0.4,-0.4 h 3.2 c 0.22091,0 0.4,-0.17909 0.4,-0.4 V 100 h 3.6 c 0.22091,0 0.4,0.17909 0.4,0.4 v 11.2 c 0,0.22091 -0.17909,0.4 -0.4,0.4 z m -56,0 H 88 v -4 h 4 v 3.6 c 0,0.22091 -0.179086,0.4 -0.4,0.4 z m -12,0 h -3.2 c -0.220914,0 -0.4,-0.17909 -0.4,-0.4 v -3.2 c 0,-0.22091 0.179086,-0.4 0.4,-0.4 H 80 v 4 z m -16,0 H 60 v -4 h 4 v 3.6 c 0,0.22091 -0.179086,0.4 -0.4,0.4 z m -16,0 H 44 v -4 h 3.6 c 0.220914,0 0.4,0.17909 0.4,0.4 v 3.2 c 0,0.22091 -0.179086,0.4 -0.4,0.4 z m -8,0 H 36 v -7.6 c 0,-0.22091 0.179086,-0.4 0.4,-0.4 h 7.2 c 0.220914,0 0.4,0.17909 0.4,0.4 v 3.6 h -3.6 c -0.220914,0 -0.4,0.17909 -0.4,0.4 v 3.6 z m 56,-4 H 92 v -3.6 c 0,-0.22091 0.179086,-0.4 0.4,-0.4 H 96 v 4 z m -8,0 H 80 v -7.6 c 0,-0.22091 0.179086,-0.4 0.4,-0.4 h 3.2 c 0.220914,0 0.4,0.17909 0.4,0.4 v 3.2 c 0,0.22091 0.179086,0.4 0.4,0.4 h 3.2 c 0.220914,0 0.4,0.17909 0.4,0.4 v 3.6 z m -20,0 H 64 v -7.6 C 64,100.17909 63.820914,100 63.6,100 H 60 V 96.4 C 60,96.179086 59.820914,96 59.6,96 H 56.4 C 56.179086,96 56,95.820914 56,95.6 V 84.4 C 56,84.179086 55.820914,84 55.6,84 H 48.4 C 48.179086,84 48,83.820914 48,83.6 V 80.4 C 48,80.179086 47.820914,80 47.6,80 H 44 v -4 h 7.6 C 51.820914,76 52,75.820914 52,75.6 V 68.4 C 52,68.179086 52.179086,68 52.4,68 H 56 v 3.6 c 0,0.220914 0.179086,0.4 0.4,0.4 h 7.2 C 63.820914,72 64,71.820914 64,71.6 V 68.4 C 64,68.179086 63.820914,68 63.6,68 H 56 V 64.4 C 56,64.179086 55.820914,64 55.6,64 H 48 V 60.4 C 48,60.179086 47.820914,60 47.6,60 H 32.4 C 32.179086,60 32,59.820914 32,59.6 V 56.4 C 32,56.179086 32.179086,56 32.4,56 h 3.2 C 35.820914,56 36,55.820914 36,55.6 V 52.4 C 36,52.179086 36.179086,52 36.4,52 H 40 v 3.6 c 0,0.220914 0.179086,0.4 0.4,0.4 h 3.2 C 43.820914,56 44,55.820914 44,55.6 V 52.4 C 44,52.179086 43.820914,52 43.6,52 H 40 V 48.4 C 40,48.179086 40.179086,48 40.4,48 H 48 v 7.6 c 0,0.220914 0.179086,0.4 0.4,0.4 H 52 v 3.6 c 0,0.220914 0.179086,0.4 0.4,0.4 h 7.2 c 0.220914,0 0.4,0.179086 0.4,0.4 v 3.2 c 0,0.220914 0.179086,0.4 0.4,0.4 h 7.2 C 67.820914,64 68,63.820914 68,63.6 V 60 h 4 v 11.6 c 0,0.220914 0.179086,0.4 0.4,0.4 H 76 v 3.6 c 0,0.220914 0.179086,0.4 0.4,0.4 h 3.2 c 0.220914,0 0.4,0.179086 0.4,0.4 v 3.2 c 0,0.220914 0.179086,0.4 0.4,0.4 h 3.2 C 83.820914,80 84,79.820914 84,79.6 V 76.4 C 84,76.179086 84.179086,76 84.4,76 h 11.2 c 0.220914,0 0.4,0.179086 0.4,0.4 V 80 H 92.4 C 92.179086,80 92,80.179086 92,80.4 V 91.6 C 92,91.820914 91.820914,92 91.6,92 H 88.4 C 88.179086,92 88,92.179086 88,92.4 V 96 H 80.4 C 80.179086,96 80,95.820914 80,95.6 V 84.4 C 80,84.179086 79.820914,84 79.6,84 H 72 V 80.4 C 72,80.179086 71.820914,80 71.6,80 H 68.4 C 68.179086,80 68,80.179086 68,80.4 V 84 H 64.4 C 64.179086,84 64,84.179086 64,84.4 V 88 H 60.4 C 60.179086,88 60,88.179086 60,88.4 v 3.2 c 0,0.220914 0.179086,0.4 0.4,0.4 h 3.2 C 63.820914,92 64,91.820914 64,91.6 V 88 h 3.6 C 67.820914,88 68,87.820914 68,87.6 V 84 h 4 v 3.6 c 0,0.220914 0.179086,0.4 0.4,0.4 h 3.2 c 0.220914,0 0.4,0.179086 0.4,0.4 v 3.2 C 76,91.820914 75.820914,92 75.6,92 H 68.4 C 68.179086,92 68,92.179086 68,92.4 V 108 Z m -8,0 h -3.2 c -0.220914,0 -0.4,-0.17909 -0.4,-0.4 v -7.2 c 0,-0.22091 0.179086,-0.4 0.4,-0.4 H 60 v 8 z m 80,-4 H 136 v -4 h 4 v 3.6 c 0,0.22091 -0.17909,0.4 -0.4,0.4 z m -16,0 h -11.2 c -0.22091,0 -0.4,-0.17909 -0.4,-0.4 v -3.2 c 0,-0.22091 -0.17909,-0.4 -0.4,-0.4 h -11.2 c -0.22091,0 -0.4,0.17909 -0.4,0.4 V 104 H 96 V 96.4 C 96,96.179086 96.179086,96 96.4,96 h 3.2 c 0.220914,0 0.4,-0.179086 0.4,-0.4 V 92 h 4 v 3.6 c 0,0.220914 0.17909,0.4 0.4,0.4 h 3.2 c 0.22091,0 0.4,-0.179086 0.4,-0.4 V 92 h 3.6 c 0.22091,0 0.4,-0.179086 0.4,-0.4 V 88 h 3.6 c 0.22091,0 0.4,0.179086 0.4,0.4 v 11.2 c 0,0.220914 0.17909,0.4 0.4,0.4 h 7.6 v 4 z m -48,0 H 72.4 C 72.179086,104 72,103.82091 72,103.6 V 96.4 C 72,96.179086 72.179086,96 72.4,96 h 3.2 c 0.220914,0 0.4,0.179086 0.4,0.4 v 7.2 c 0,0.22091 -0.179086,0.4 -0.4,0.4 z m 68,-4 H 140 v -3.6 c 0,-0.220914 0.17909,-0.4 0.4,-0.4 h 3.2 c 0.22091,0 0.4,0.179086 0.4,0.4 v 3.6 z m -8,0 h -3.2 c -0.22091,0 -0.4,-0.179086 -0.4,-0.4 v -3.2 c 0,-0.220914 -0.17909,-0.4 -0.4,-0.4 h -3.2 c -0.22091,0 -0.4,0.179086 -0.4,0.4 v 3.2 c 0,0.220914 -0.17909,0.4 -0.4,0.4 H 124 v -3.6 c 0,-0.220914 -0.17909,-0.4 -0.4,-0.4 h -3.2 c -0.22091,0 -0.4,-0.179086 -0.4,-0.4 v -7.2 c 0,-0.220914 0.17909,-0.4 0.4,-0.4 h 3.2 c 0.22091,0 0.4,0.179086 0.4,0.4 v 3.2 c 0,0.220914 0.17909,0.4 0.4,0.4 h 3.2 c 0.22091,0 0.4,-0.179086 0.4,-0.4 v -3.2 c 0,-0.220914 0.17909,-0.4 0.4,-0.4 h 3.2 c 0.22091,0 0.4,-0.179086 0.4,-0.4 V 84 h 7.6 c 0.22091,0 0.4,0.179086 0.4,0.4 V 88 h -3.6 c -0.22091,0 -0.4,0.179086 -0.4,0.4 V 100 Z m -44,0 H 88.4 C 88.179086,100 88,99.820914 88,99.6 V 96 h 3.6 c 0.220914,0 0.4,0.179086 0.4,0.4 v 3.2 c 0,0.220914 -0.179086,0.4 -0.4,0.4 z m -40,0 H 40.4 C 40.179086,100 40,99.820914 40,99.6 V 96.4 C 40,96.179086 40.179086,96 40.4,96 h 3.2 C 43.820914,96 44,95.820914 44,95.6 V 92.4 C 44,92.179086 43.820914,92 43.6,92 H 36.4 C 36.179086,92 36,91.820914 36,91.6 V 88 h 15.6 c 0.220914,0 0.4,0.179086 0.4,0.4 v 3.2 C 52,91.820914 51.820914,92 51.6,92 H 48.4 C 48.179086,92 48,92.179086 48,92.4 v 3.2 c 0,0.220914 0.179086,0.4 0.4,0.4 h 3.2 c 0.220914,0 0.4,0.179086 0.4,0.4 v 3.2 c 0,0.220914 -0.179086,0.4 -0.4,0.4 z m -16,0 H 24 V 96.4 C 24,96.179086 23.820914,96 23.6,96 H 20.4 C 20.179086,96 20,95.820914 20,95.6 V 92.4 C 20,92.179086 20.179086,92 20.4,92 h 3.2 C 23.820914,92 24,91.820914 24,91.6 V 88 h 4 v 3.6 c 0,0.220914 0.179086,0.4 0.4,0.4 h 3.2 c 0.220914,0 0.4,0.179086 0.4,0.4 v 3.2 c 0,0.220914 0.179086,0.4 0.4,0.4 h 3.2 c 0.220914,0 0.4,0.179086 0.4,0.4 v 3.2 c 0,0.220914 -0.179086,0.4 -0.4,0.4 z m 112,-8 h -7.2 C 140.17909,92 140,91.820914 140,91.6 V 88 h 7.6 c 0.22091,0 0.4,0.179086 0.4,0.4 v 3.2 c 0,0.220914 -0.17909,0.4 -0.4,0.4 z m -40,0 H 104 v -4 h 4 v 4 z m -8,0 H 96.4 C 96.179086,92 96,91.820914 96,91.6 V 88.4 C 96,88.179086 96.179086,88 96.4,88 h 3.6 v 4 z m 12,-4 H 108 v -3.6 c 0,-0.220914 -0.17909,-0.4 -0.4,-0.4 h -3.2 c -0.22091,0 -0.4,0.179086 -0.4,0.4 V 88 h -4 V 84.4 C 100,84.179086 99.820914,84 99.6,84 H 96.4 C 96.179086,84 96,83.820914 96,83.6 V 80 h 3.6 c 0.220914,0 0.4,-0.179086 0.4,-0.4 v -3.2 c 0,-0.220914 0.17909,-0.4 0.4,-0.4 h 3.2 c 0.22091,0 0.4,0.179086 0.4,0.4 v 3.2 c 0,0.220914 0.17909,0.4 0.4,0.4 h 7.2 c 0.22091,0 0.4,-0.179086 0.4,-0.4 v -3.2 c 0,-0.220914 -0.17909,-0.4 -0.4,-0.4 h -3.2 c -0.22091,0 -0.4,-0.179086 -0.4,-0.4 v -3.2 c 0,-0.220914 0.17909,-0.4 0.4,-0.4 h 3.2 c 0.22091,0 0.4,-0.179086 0.4,-0.4 V 60.4 c 0,-0.220914 0.17909,-0.4 0.4,-0.4 h 3.6 v 3.6 c 0,0.220914 0.17909,0.4 0.4,0.4 h 7.2 c 0.22091,0 0.4,-0.179086 0.4,-0.4 V 60.4 C 124,60.179086 123.82091,60 123.6,60 H 116 v -3.6 c 0,-0.220914 -0.17909,-0.4 -0.4,-0.4 h -3.2 c -0.22091,0 -0.4,-0.179086 -0.4,-0.4 v -3.2 c 0,-0.220914 -0.17909,-0.4 -0.4,-0.4 h -3.2 c -0.22091,0 -0.4,-0.179086 -0.4,-0.4 v -3.2 c 0,-0.220914 -0.17909,-0.4 -0.4,-0.4 h -3.2 c -0.22091,0 -0.4,0.179086 -0.4,0.4 v 7.2 c 0,0.220914 -0.17909,0.4 -0.4,0.4 H 96 v -8 h 3.6 c 0.220914,0 0.4,-0.179086 0.4,-0.4 V 44 h 3.6 c 0.22091,0 0.4,-0.179086 0.4,-0.4 v -3.2 c 0,-0.220914 -0.17909,-0.4 -0.4,-0.4 h -3.2 c -0.22091,0 -0.4,0.179086 -0.4,0.4 V 44 H 96 V 40.4 C 96,40.179086 95.820914,40 95.6,40 H 92.4 C 92.179086,40 92,40.179086 92,40.4 v 3.2 c 0,0.220914 0.179086,0.4 0.4,0.4 H 96 v 4 H 84 v -4 h 3.6 C 87.820914,44 88,43.820914 88,43.6 V 40.4 C 88,40.179086 87.820914,40 87.6,40 H 84.4 C 84.179086,40 84,40.179086 84,40.4 V 44 H 80 V 40.4 C 80,40.179086 79.820914,40 79.6,40 H 76 v -8 h 7.6 C 83.820914,32 84,31.820914 84,31.6 V 24 h 3.6 c 0.220914,0 0.4,0.179086 0.4,0.4 v 3.2 c 0,0.220914 0.179086,0.4 0.4,0.4 h 3.2 c 0.220914,0 0.4,0.179086 0.4,0.4 v 3.2 C 92,31.820914 91.820914,32 91.6,32 H 88.4 C 88.179086,32 88,32.179086 88,32.4 v 3.2 c 0,0.220914 0.179086,0.4 0.4,0.4 H 108 v 7.6 c 0,0.220914 0.17909,0.4 0.4,0.4 h 3.2 c 0.22091,0 0.4,-0.179086 0.4,-0.4 v -3.2 c 0,-0.220914 0.17909,-0.4 0.4,-0.4 h 3.2 c 0.22091,0 0.4,0.179086 0.4,0.4 v 11.2 c 0,0.220914 0.17909,0.4 0.4,0.4 h 3.2 c 0.22091,0 0.4,-0.179086 0.4,-0.4 v -3.2 c 0,-0.220914 0.17909,-0.4 0.4,-0.4 h 11.2 c 0.22091,0 0.4,0.179086 0.4,0.4 V 52 h -7.6 c -0.22091,0 -0.4,0.179086 -0.4,0.4 v 3.2 c 0,0.220914 0.17909,0.4 0.4,0.4 h 7.2 c 0.22091,0 0.4,-0.179086 0.4,-0.4 V 52 h 4 v 7.6 c 0,0.220914 -0.17909,0.4 -0.4,0.4 h -7.2 c -0.22091,0 -0.4,0.179086 -0.4,0.4 V 68 h -3.6 c -0.22091,0 -0.4,0.179086 -0.4,0.4 v 7.2 c 0,0.220914 0.17909,0.4 0.4,0.4 h 3.6 v 3.6 c 0,0.220914 0.17909,0.4 0.4,0.4 h 3.6 v 4 h -19.6 c -0.22091,0 -0.4,0.179086 -0.4,0.4 V 88 Z M 88,87.6 V 84.4 C 88,84.179086 87.820914,84 87.6,84 H 84.4 C 84.179086,84 84,84.179086 84,84.4 v 3.2 c 0,0.220914 0.179086,0.4 0.4,0.4 h 3.2 C 87.820914,88 88,87.820914 88,87.6 Z M 35.6,88 H 28 V 76 h 7.6 C 35.820914,76 36,75.820914 36,75.6 V 72.4 C 36,72.179086 35.820914,72 35.6,72 H 28 v -8 h 3.6 c 0.220914,0 0.4,0.179086 0.4,0.4 v 3.2 c 0,0.220914 0.179086,0.4 0.4,0.4 h 3.2 C 35.820914,68 36,67.820914 36,67.6 V 64.4 C 36,64.179086 36.179086,64 36.4,64 H 48 v 3.6 C 48,67.820914 47.820914,68 47.6,68 H 40.4 C 40.179086,68 40,68.179086 40,68.4 v 3.2 c 0,0.220914 0.179086,0.4 0.4,0.4 h 3.2 c 0.220914,0 0.4,0.179086 0.4,0.4 V 76 H 40.4 C 40.179086,76 40,76.179086 40,76.4 V 80 H 36.4 C 36.179086,80 36,80.179086 36,80.4 V 88 Z m -12,0 H 16.4 C 16.179086,88 16,87.820914 16,87.6 V 84.4 C 16,84.179086 16.179086,84 16.4,84 h 7.2 c 0.220914,0 0.4,0.179086 0.4,0.4 V 88 Z m 124,-4 h -3.2 C 144.17909,84 144,83.820914 144,83.6 V 80 h 3.6 c 0.22091,0 0.4,0.179086 0.4,0.4 v 3.2 c 0,0.220914 -0.17909,0.4 -0.4,0.4 z m -104,0 H 40.4 C 40.179086,84 40,83.820914 40,83.6 V 80 h 4 v 3.6 c 0,0.220914 -0.179086,0.4 -0.4,0.4 z m 100,-4 h -3.2 c -0.22091,0 -0.4,-0.179086 -0.4,-0.4 v -7.2 c 0,-0.220914 -0.17909,-0.4 -0.4,-0.4 h -3.2 c -0.22091,0 -0.4,0.179086 -0.4,0.4 v 7.2 c 0,0.220914 -0.17909,0.4 -0.4,0.4 H 132 V 76.4 C 132,76.179086 131.82091,76 131.6,76 H 128 v -8 h 3.6 c 0.22091,0 0.4,-0.179086 0.4,-0.4 v -3.2 c 0,-0.220914 0.17909,-0.4 0.4,-0.4 h 3.2 c 0.22091,0 0.4,0.179086 0.4,0.4 v 3.2 c 0,0.220914 0.17909,0.4 0.4,0.4 h 7.2 c 0.22091,0 0.4,-0.179086 0.4,-0.4 v -3.2 c 0,-0.220914 -0.17909,-0.4 -0.4,-0.4 h -3.2 c -0.22091,0 -0.4,-0.179086 -0.4,-0.4 v -3.2 c 0,-0.220914 0.17909,-0.4 0.4,-0.4 h 3.2 c 0.22091,0 0.4,-0.179086 0.4,-0.4 V 52 h 3.6 c 0.22091,0 0.4,0.179086 0.4,0.4 v 19.2 c 0,0.220914 -0.17909,0.4 -0.4,0.4 h -3.2 c -0.22091,0 -0.4,0.179086 -0.4,0.4 V 80 Z M 120,79.6 v -3.2 c 0,-0.220914 -0.17909,-0.4 -0.4,-0.4 h -3.2 c -0.22091,0 -0.4,0.179086 -0.4,0.4 v 3.2 c 0,0.220914 0.17909,0.4 0.4,0.4 h 3.2 c 0.22091,0 0.4,-0.179086 0.4,-0.4 z m -56,0 V 76.4 C 64,76.179086 63.820914,76 63.6,76 H 56.4 C 56.179086,76 56,76.179086 56,76.4 v 3.2 c 0,0.220914 0.179086,0.4 0.4,0.4 h 7.2 C 63.820914,80 64,79.820914 64,79.6 Z M 19.6,80 H 16.4 C 16.179086,80 16,79.820914 16,79.6 V 72.4 C 16,72.179086 16.179086,72 16.4,72 h 3.2 c 0.220914,0 0.4,0.179086 0.4,0.4 v 7.2 c 0,0.220914 -0.179086,0.4 -0.4,0.4 z m 8,-4 H 24.4 C 24.179086,76 24,75.820914 24,75.6 V 72.4 C 24,72.179086 24.179086,72 24.4,72 H 28 v 4 z M 120,71.6 v -3.2 c 0,-0.220914 -0.17909,-0.4 -0.4,-0.4 h -3.2 c -0.22091,0 -0.4,0.179086 -0.4,0.4 v 3.2 c 0,0.220914 0.17909,0.4 0.4,0.4 h 3.2 c 0.22091,0 0.4,-0.179086 0.4,-0.4 z M 103.6,72 H 92.4 C 92.179086,72 92,71.820914 92,71.6 V 68.4 C 92,68.179086 92.179086,68 92.4,68 h 3.2 C 95.820914,68 96,67.820914 96,67.6 V 64 h 3.6 c 0.220914,0 0.4,-0.179086 0.4,-0.4 v -3.2 c 0,-0.220914 0.17909,-0.4 0.4,-0.4 h 7.2 c 0.22091,0 0.4,0.179086 0.4,0.4 v 3.2 c 0,0.220914 -0.17909,0.4 -0.4,0.4 h -3.2 c -0.22091,0 -0.4,0.179086 -0.4,0.4 v 7.2 c 0,0.220914 -0.17909,0.4 -0.4,0.4 z m -24,0 H 76 V 64.4 C 76,64.179086 76.179086,64 76.4,64 H 80 v 7.6 c 0,0.220914 -0.179086,0.4 -0.4,0.4 z m 8,-4 H 84.4 C 84.179086,68 84,67.820914 84,67.6 V 64 h 4 v 3.6 c 0,0.220914 -0.179086,0.4 -0.4,0.4 z m 8,-4 H 88 V 60.4 C 88,60.179086 87.820914,60 87.6,60 H 84.4 C 84.179086,60 84,60.179086 84,60.4 V 64 H 80 V 52.4 C 80,52.179086 79.820914,52 79.6,52 H 72.4 C 72.179086,52 72,52.179086 72,52.4 V 56 H 68.4 C 68.179086,56 68,56.179086 68,56.4 V 60 H 64.4 C 64.179086,60 64,59.820914 64,59.6 V 52 h 3.6 C 67.820914,52 68,51.820914 68,51.6 V 48 h 3.6 C 71.820914,48 72,47.820914 72,47.6 V 40.4 C 72,40.179086 72.179086,40 72.4,40 H 76 v 3.6 c 0,0.220914 0.179086,0.4 0.4,0.4 H 80 v 3.6 c 0,0.220914 0.179086,0.4 0.4,0.4 H 84 v 3.6 c 0,0.220914 0.179086,0.4 0.4,0.4 h 3.2 c 0.220914,0 0.4,0.179086 0.4,0.4 v 3.2 c 0,0.220914 0.179086,0.4 0.4,0.4 H 96 v 8 z m -68,0 H 20.4 C 20.179086,64 20,63.820914 20,63.6 V 60.4 C 20,60.179086 19.820914,60 19.6,60 H 16.4 C 16.179086,60 16,59.820914 16,59.6 V 56.4 C 16,56.179086 16.179086,56 16.4,56 h 3.2 C 19.820914,56 20,55.820914 20,55.6 V 52.4 C 20,52.179086 19.820914,52 19.6,52 H 16.4 C 16.179086,52 16,51.820914 16,51.6 V 48.4 C 16,48.179086 16.179086,48 16.4,48 h 7.2 c 0.220914,0 0.4,0.179086 0.4,0.4 v 7.2 c 0,0.220914 0.179086,0.4 0.4,0.4 h 3.2 c 0.220914,0 0.4,0.179086 0.4,0.4 V 64 Z m 48,-4 H 72 v -4 h 3.6 c 0.220914,0 0.4,0.179086 0.4,0.4 v 3.2 c 0,0.220914 -0.179086,0.4 -0.4,0.4 z m -20,-4 H 52 V 52.4 C 52,52.179086 52.179086,52 52.4,52 h 3.2 c 0.220914,0 0.4,0.179086 0.4,0.4 v 3.2 c 0,0.220914 -0.179086,0.4 -0.4,0.4 z m 88,-4 H 136 v -3.6 c 0,-0.220914 0.17909,-0.4 0.4,-0.4 h 7.2 c 0.22091,0 0.4,0.179086 0.4,0.4 V 52 Z m -80,0 H 60.4 C 60.179086,52 60,51.820914 60,51.6 V 48.4 C 60,48.179086 59.820914,48 59.6,48 H 56.4 C 56.179086,48 56,47.820914 56,47.6 V 36 h 4 v 7.6 c 0,0.220914 0.179086,0.4 0.4,0.4 h 3.2 C 63.820914,44 64,43.820914 64,43.6 V 40.4 C 64,40.179086 64.179086,40 64.4,40 h 3.2 c 0.220914,0 0.4,0.179086 0.4,0.4 V 48 H 64.4 C 64.179086,48 64,48.179086 64,48.4 V 52 Z m -32,0 H 28.4 C 28.179086,52 28,51.820914 28,51.6 V 48.4 C 28,48.179086 28.179086,48 28.4,48 h 3.2 c 0.220914,0 0.4,0.179086 0.4,0.4 v 3.2 c 0,0.220914 -0.179086,0.4 -0.4,0.4 z m 20,-4 H 48 V 32.4 C 48,32.179086 48.179086,32 48.4,32 h 3.2 C 51.820914,32 52,31.820914 52,31.6 V 28 h 4 v 8 H 52.4 C 52.179086,36 52,36.179086 52,36.4 v 11.2 c 0,0.220914 -0.179086,0.4 -0.4,0.4 z m 96,-4 H 120.4 C 120.17909,44 120,43.820914 120,43.6 V 16.4 c 0,-0.220914 0.17909,-0.4 0.4,-0.4 h 27.2 c 0.22091,0 0.4,0.179086 0.4,0.4 v 27.2 c 0,0.220914 -0.17909,0.4 -0.4,0.4 z m -104,0 H 16.4 C 16.179086,44 16,43.820914 16,43.6 V 16.4 C 16,16.179086 16.179086,16 16.4,16 h 27.2 c 0.220914,0 0.4,0.179086 0.4,0.4 V 43.6 C 44,43.820914 43.820914,44 43.6,44 Z M 144,39.6 V 20.4 c 0,-0.220914 -0.17909,-0.4 -0.4,-0.4 h -19.2 c -0.22091,0 -0.4,0.179086 -0.4,0.4 v 19.2 c 0,0.220914 0.17909,0.4 0.4,0.4 h 19.2 c 0.22091,0 0.4,-0.179086 0.4,-0.4 z m -104,0 V 20.4 C 40,20.179086 39.820914,20 39.6,20 H 20.4 C 20.179086,20 20,20.179086 20,20.4 v 19.2 c 0,0.220914 0.179086,0.4 0.4,0.4 H 39.6 C 39.820914,40 40,39.820914 40,39.6 Z M 139.6,36 H 128.4 C 128.17909,36 128,35.820914 128,35.6 V 24.4 c 0,-0.220914 0.17909,-0.4 0.4,-0.4 h 11.2 c 0.22091,0 0.4,0.179086 0.4,0.4 v 11.2 c 0,0.220914 -0.17909,0.4 -0.4,0.4 z m -28,0 H 108 v -3.6 c 0,-0.220914 -0.17909,-0.4 -0.4,-0.4 h -3.2 c -0.22091,0 -0.4,-0.179086 -0.4,-0.4 v -3.2 c 0,-0.220914 0.17909,-0.4 0.4,-0.4 h 3.2 c 0.22091,0 0.4,-0.179086 0.4,-0.4 V 20.4 C 108,20.179086 107.82091,20 107.6,20 H 100 v -3.6 c 0,-0.220914 0.17909,-0.4 0.4,-0.4 h 15.2 c 0.22091,0 0.4,0.179086 0.4,0.4 v 7.2 c 0,0.220914 -0.17909,0.4 -0.4,0.4 h -3.2 c -0.22091,0 -0.4,0.179086 -0.4,0.4 v 3.2 c 0,0.220914 0.17909,0.4 0.4,0.4 h 3.2 c 0.22091,0 0.4,0.179086 0.4,0.4 v 3.2 c 0,0.220914 -0.17909,0.4 -0.4,0.4 h -3.2 c -0.22091,0 -0.4,0.179086 -0.4,0.4 v 3.2 c 0,0.220914 -0.17909,0.4 -0.4,0.4 z m -48,0 H 60 V 32.4 C 60,32.179086 60.179086,32 60.4,32 h 3.2 c 0.220914,0 0.4,0.179086 0.4,0.4 v 3.2 c 0,0.220914 -0.179086,0.4 -0.4,0.4 z m -28,0 H 24.4 C 24.179086,36 24,35.820914 24,35.6 V 24.4 C 24,24.179086 24.179086,24 24.4,24 h 11.2 c 0.220914,0 0.4,0.179086 0.4,0.4 v 11.2 c 0,0.220914 -0.179086,0.4 -0.4,0.4 z m 40,-4 H 68.4 C 68.179086,32 68,31.820914 68,31.6 V 28.4 C 68,28.179086 68.179086,28 68.4,28 h 3.2 C 71.820914,28 72,27.820914 72,27.6 V 24.4 C 72,24.179086 71.820914,24 71.6,24 H 64.4 C 64.179086,24 64,24.179086 64,24.4 v 3.2 C 64,27.820914 63.820914,28 63.6,28 H 56 v -4 h 3.6 C 59.820914,24 60,23.820914 60,23.6 V 20.4 C 60,20.179086 59.820914,20 59.6,20 H 56.4 C 56.179086,20 56,20.179086 56,20.4 V 24 H 52.4 C 52.179086,24 52,24.179086 52,24.4 V 28 H 48.4 C 48.179086,28 48,27.820914 48,27.6 V 20.4 C 48,20.179086 48.179086,20 48.4,20 h 3.2 C 51.820914,20 52,19.820914 52,19.6 V 16.4 C 52,16.179086 52.179086,16 52.4,16 h 11.2 c 0.220914,0 0.4,0.179086 0.4,0.4 v 3.2 c 0,0.220914 0.179086,0.4 0.4,0.4 h 3.2 C 67.820914,20 68,19.820914 68,19.6 V 16.4 C 68,16.179086 68.179086,16 68.4,16 h 11.2 c 0.220914,0 0.4,0.179086 0.4,0.4 v 3.2 c 0,0.220914 0.179086,0.4 0.4,0.4 h 3.2 c 0.220914,0 0.4,0.179086 0.4,0.4 V 24 H 76.4 C 76.179086,24 76,24.179086 76,24.4 V 32 Z m 24,-8 H 96.4 C 96.179086,24 96,23.820914 96,23.6 V 20 h 4 v 3.6 c 0,0.220914 -0.179086,0.4 -0.4,0.4 z m -4,-4 H 88.4 C 88.179086,20 88,19.820914 88,19.6 V 16.4 C 88,16.179086 88.179086,16 88.4,16 h 7.2 c 0.220914,0 0.4,0.179086 0.4,0.4 V 20 Z"
         id="path190"
         style="fill:#1a1a1a" />
    </g>
  </g>
</svg>
