<?xml version="1.0" encoding="UTF-8" standalone="no"?>
<!-- Created with Inkscape (http://www.inkscape.org/) -->

<svg
   width="40.173599mm"
   height="40.173599mm"
   viewBox="0 0 40.173599 40.173599"
   version="1.1"
   id="svg5"
   sodipodi:docname="qr-zemp.svg"
   inkscape:version="1.2.2 (b0a8486541, 2022-12-01)"
   xmlns:inkscape="http://www.inkscape.org/namespaces/inkscape"
   xmlns:sodipodi="http://sodipodi.sourceforge.net/DTD/sodipodi-0.dtd"
   xmlns="http://www.w3.org/2000/svg"
   xmlns:svg="http://www.w3.org/2000/svg">
  <sodipodi:namedview
     id="namedview7"
     pagecolor="#4a4a4a"
     bordercolor="#000000"
     borderopacity="0.25"
     inkscape:showpageshadow="2"
     inkscape:pageopacity="0"
     inkscape:pagecheckerboard="0"
     inkscape:deskcolor="#d1d1d1"
     inkscape:document-units="mm"
     showgrid="false"
     inkscape:zoom="1.4752525"
     inkscape:cx="-219.96234"
     inkscape:cy="114.89559"
     inkscape:window-width="1920"
     inkscape:window-height="1011"
     inkscape:window-x="0"
     inkscape:window-y="32"
     inkscape:window-maximized="1"
     inkscape:current-layer="layer1" />
  <defs
     id="defs2" />
  <g
     inkscape:label="Layer 1"
     inkscape:groupmode="layer"
     id="layer1"
     transform="translate(-11.193798,-146.11598)">
    <rect
       x="11.193798"
       y="146.11598"
       width="40.173599"
       height="40.173599"
       style="fill:#e6e6e6;stroke:none;stroke-width:0.244961"
       id="rect188"
       ry="5.1641622"
       rx="0" />
    <g
       style="fill:#1a1a1a;fill-opacity:1;stroke:none"
       id="g275"
       transform="matrix(0.30107759,0,0,0.30107759,9.000856,143.92304)">
      <path
         d="m 127.6,132 h -3.2 c -0.22091,0 -0.4,-0.17909 -0.4,-0.4 v -7.2 c 0,-0.22091 -0.17909,-0.4 -0.4,-0.4 h -3.2 c -0.22091,0 -0.4,0.17909 -0.4,0.4 v 7.2 c 0,0.22091 -0.17909,0.4 -0.4,0.4 H 92.4 C 92.179086,132 92,131.82091 92,131.6 V 124 h 8 v 3.6 c 0,0.22091 0.17909,0.4 0.4,0.4 h 7.2 c 0.22091,0 0.4,-0.17909 0.4,-0.4 v -3.2 c 0,-0.22091 0.17909,-0.4 0.4,-0.4 h 3.2 c 0.22091,0 0.4,0.17909 0.4,0.4 v 3.2 c 0,0.22091 0.17909,0.4 0.4,0.4 h 3.2 c 0.22091,0 0.4,-0.17909 0.4,-0.4 v -7.2 c 0,-0.22091 0.17909,-0.4 0.4,-0.4 h 11.2 c 0.22091,0 0.4,-0.17909 0.4,-0.4 V 116 h 3.6 c 0.22091,0 0.4,0.17909 0.4,0.4 v 11.2 c 0,0.22091 -0.17909,0.4 -0.4,0.4 h -3.2 c -0.22091,0 -0.4,0.17909 -0.4,0.4 v 3.2 c 0,0.22091 -0.17909,0.4 -0.4,0.4 z m -40,0 h -3.2 c -0.220914,0 -0.4,-0.17909 -0.4,-0.4 v -11.2 c 0,-0.22091 0.179086,-0.4 0.4,-0.4 h 3.2 c 0.220914,0 0.4,-0.17909 0.4,-0.4 V 116 h 4 v 8 h -3.6 c -0.220914,0 -0.4,0.17909 -0.4,0.4 v 7.2 c 0,0.22091 -0.179086,0.4 -0.4,0.4 z m -8,0 h -3.2 c -0.220914,0 -0.4,-0.17909 -0.4,-0.4 v -3.2 c 0,-0.22091 0.179086,-0.4 0.4,-0.4 h 3.2 c 0.220914,0 0.4,0.17909 0.4,0.4 v 3.2 c 0,0.22091 -0.179086,0.4 -0.4,0.4 z m -8,0 H 64.4 C 64.179086,132 64,131.82091 64,131.6 V 128 h 3.6 c 0.220914,0 0.4,-0.17909 0.4,-0.4 v -3.2 c 0,-0.22091 -0.179086,-0.4 -0.4,-0.4 h -3.2 c -0.220914,0 -0.4,0.17909 -0.4,0.4 v 3.6 h -3.6 c -0.220914,0 -0.4,0.17909 -0.4,0.4 v 3.2 c 0,0.22091 -0.179086,0.4 -0.4,0.4 h -3.2 c -0.220914,0 -0.4,-0.17909 -0.4,-0.4 v -7.2 C 56,124.17909 55.820914,124 55.6,124 H 52 v -8 h 3.6 c 0.220914,0 0.4,-0.17909 0.4,-0.4 V 112 h 8 v 4 h -3.6 c -0.220914,0 -0.4,0.17909 -0.4,0.4 v 3.2 c 0,0.22091 0.179086,0.4 0.4,0.4 h 3.2 c 0.220914,0 0.4,-0.17909 0.4,-0.4 V 116 h 4 v 3.6 c 0,0.22091 0.179086,0.4 0.4,0.4 h 7.2 c 0.220914,0 0.4,-0.17909 0.4,-0.4 v -3.2 C 76,116.17909 75.820914,116 75.6,116 H 68 v -4 h 3.6 c 0.220914,0 0.4,-0.17909 0.4,-0.4 v -3.2 c 0,-0.22091 0.179086,-0.4 0.4,-0.4 H 76 v 3.6 c 0,0.22091 0.179086,0.4 0.4,0.4 h 3.2 c 0.220914,0 0.4,0.17909 0.4,0.4 v 11.2 c 0,0.22091 -0.179086,0.4 -0.4,0.4 h -7.2 c -0.220914,0 -0.4,0.17909 -0.4,0.4 v 7.2 c 0,0.22091 -0.179086,0.4 -0.4,0.4 z m -20,0 h -3.2 c -0.220914,0 -0.4,-0.17909 -0.4,-0.4 v -7.2 c 0,-0.22091 0.179086,-0.4 0.4,-0.4 H 52 v 7.6 c 0,0.22091 -0.179086,0.4 -0.4,0.4 z m -8,0 H 16.4 c -0.220914,0 -0.4,-0.17909 -0.4,-0.4 v -27.2 c 0,-0.22091 0.179086,-0.4 0.4,-0.4 h 27.2 c 0.220914,0 0.4,0.17909 0.4,0.4 v 27.2 c 0,0.22091 -0.179086,0.4 -0.4,0.4 z M 40,127.6 V 108.4 C 40,108.17909 39.820914,108 39.6,108 H 20.4 c -0.220914,0 -0.4,0.17909 -0.4,0.4 v 19.2 c 0,0.22091 0.179086,0.4 0.4,0.4 h 19.2 c 0.220914,0 0.4,-0.17909 0.4,-0.4 z M 103.6,124 H 100 v -4 h 3.6 c 0.22091,0 0.4,0.17909 0.4,0.4 v 3.2 c 0,0.22091 -0.17909,0.4 -0.4,0.4 z m -68,0 H 24.4 c -0.220914,0 -0.4,-0.17909 -0.4,-0.4 v -11.2 c 0,-0.22091 0.179086,-0.4 0.4,-0.4 h 11.2 c 0.220914,0 0.4,0.17909 0.4,0.4 v 11.2 c 0,0.22091 -0.179086,0.4 -0.4,0.4 z m 64,-4 h -3.2 c -0.220914,0 -0.4,-0.17909 -0.4,-0.4 v -3.2 C 96,116.17909 95.820914,116 95.6,116 H 92 v -4 h 3.6 c 0.220914,0 0.4,-0.17909 0.4,-0.4 v -3.2 c 0,-0.22091 -0.179086,-0.4 -0.4,-0.4 h -3.2 c -0.220914,0 -0.4,0.17909 -0.4,0.4 v 3.6 h -3.6 c -0.220914,0 -0.4,0.17909 -0.4,0.4 V 116 H 84.4 C 84.179086,116 84,115.82091 84,115.6 V 108 h 3.6 c 0.220914,0 0.4,-0.17909 0.4,-0.4 v -3.2 C 88,104.17909 87.820914,104 87.6,104 H 84 v -3.6 C 84,100.17909 83.820914,100 83.6,100 H 80 v -8 h 8 v 7.6 c 0,0.220914 0.179086,0.4 0.4,0.4 H 92 v 3.6 c 0,0.22091 0.179086,0.4 0.4,0.4 h 3.2 c 0.220914,0 0.4,-0.17909 0.4,-0.4 v -3.2 C 96,100.17909 95.820914,100 95.6,100 H 92 V 96.4 C 92,96.179086 92.179086,96 92.4,96 h 19.2 c 0.22091,0 0.4,-0.179086 0.4,-0.4 v -7.2 c 0,-0.220914 -0.17909,-0.4 -0.4,-0.4 h -3.2 c -0.22091,0 -0.4,0.179086 -0.4,0.4 v 3.2 c 0,0.220914 -0.17909,0.4 -0.4,0.4 h -3.2 C 104.17909,92 104,91.820914 104,91.6 V 84 h 15.6 c 0.22091,0 0.4,0.179086 0.4,0.4 V 88 h -3.6 c -0.22091,0 -0.4,0.179086 -0.4,0.4 v 7.2 c 0,0.220914 0.17909,0.4 0.4,0.4 h 3.2 c 0.22091,0 0.4,0.179086 0.4,0.4 v 3.2 c 0,0.220914 -0.17909,0.4 -0.4,0.4 h -3.2 c -0.22091,0 -0.4,0.17909 -0.4,0.4 v 3.2 c 0,0.22091 0.17909,0.4 0.4,0.4 h 7.2 c 0.22091,0 0.4,0.17909 0.4,0.4 v 3.6 h -7.6 c -0.22091,0 -0.4,0.17909 -0.4,0.4 v 3.2 c 0,0.22091 0.17909,0.4 0.4,0.4 h 3.2 c 0.22091,0 0.4,0.17909 0.4,0.4 v 3.2 c 0,0.22091 -0.17909,0.4 -0.4,0.4 h -19.2 c -0.22091,0 -0.4,0.17909 -0.4,0.4 v 3.6 z m 28,-4 h -3.2 c -0.22091,0 -0.4,-0.17909 -0.4,-0.4 V 108 h 4 v 8 z m -76,0 h -3.2 c -0.220914,0 -0.4,-0.17909 -0.4,-0.4 v -7.2 c 0,-0.22091 0.179086,-0.4 0.4,-0.4 H 56 v 4 h -3.6 c -0.220914,0 -0.4,0.17909 -0.4,0.4 v 3.6 z m 60.4,-4.4 v -11.2 c 0,-0.22091 -0.17909,-0.4 -0.4,-0.4 h -11.2 c -0.22091,0 -0.4,0.17909 -0.4,0.4 v 11.2 c 0,0.22091 0.17909,0.4 0.4,0.4 h 11.2 c 0.22091,0 0.4,-0.17909 0.4,-0.4 z M 67.6,112 H 64 v -3.6 c 0,-0.22091 0.179086,-0.4 0.4,-0.4 h 3.2 c 0.220914,0 0.4,0.17909 0.4,0.4 v 3.6 z m 64,-4 H 128 V 96.4 c 0,-0.220914 -0.17909,-0.4 -0.4,-0.4 h -3.2 C 124.17909,96 124,95.820914 124,95.6 V 92 h 3.6 c 0.22091,0 0.4,-0.179086 0.4,-0.4 V 88.4 C 128,88.179086 127.82091,88 127.6,88 H 124 V 76 h 3.6 c 0.22091,0 0.4,-0.179086 0.4,-0.4 v -3.2 c 0,-0.220914 -0.17909,-0.4 -0.4,-0.4 h -3.2 c -0.22091,0 -0.4,0.179086 -0.4,0.4 V 76 h -8 v -3.6 c 0,-0.220914 -0.17909,-0.4 -0.4,-0.4 h -3.2 c -0.22091,0 -0.4,-0.179086 -0.4,-0.4 v -3.2 c 0,-0.220914 0.17909,-0.4 0.4,-0.4 h 11.2 c 0.22091,0 0.4,-0.179086 0.4,-0.4 v -7.2 c 0,-0.220914 0.17909,-0.4 0.4,-0.4 h 3.2 c 0.22091,0 0.4,-0.179086 0.4,-0.4 v -3.2 c 0,-0.220914 -0.17909,-0.4 -0.4,-0.4 h -11.2 c -0.22091,0 -0.4,0.179086 -0.4,0.4 v 3.2 c 0,0.220914 0.17909,0.4 0.4,0.4 h 3.2 c 0.22091,0 0.4,0.179086 0.4,0.4 v 3.2 c 0,0.220914 -0.17909,0.4 -0.4,0.4 h -7.2 c -0.22091,0 -0.4,-0.179086 -0.4,-0.4 v -3.2 c 0,-0.220914 -0.17909,-0.4 -0.4,-0.4 h -3.2 c -0.22091,0 -0.4,-0.179086 -0.4,-0.4 v -3.2 c 0,-0.220914 -0.17909,-0.4 -0.4,-0.4 h -3.2 c -0.22091,0 -0.4,-0.179086 -0.4,-0.4 v -3.2 c 0,-0.220914 0.17909,-0.4 0.4,-0.4 h 3.2 c 0.22091,0 0.4,-0.179086 0.4,-0.4 v -3.2 c 0,-0.220914 0.17909,-0.4 0.4,-0.4 h 3.2 c 0.22091,0 0.4,0.179086 0.4,0.4 v 3.2 c 0,0.220914 0.17909,0.4 0.4,0.4 h 3.2 c 0.22091,0 0.4,-0.179086 0.4,-0.4 v -3.2 c 0,-0.220914 0.17909,-0.4 0.4,-0.4 h 15.2 c 0.22091,0 0.4,0.179086 0.4,0.4 v 15.2 c 0,0.220914 -0.17909,0.4 -0.4,0.4 h -3.2 c -0.22091,0 -0.4,0.179086 -0.4,0.4 v 3.2 c 0,0.220914 0.17909,0.4 0.4,0.4 h 3.2 c 0.22091,0 0.4,0.179086 0.4,0.4 v 11.2 c 0,0.220914 -0.17909,0.4 -0.4,0.4 h -3.2 c -0.22091,0 -0.4,0.179086 -0.4,0.4 v 3.2 c 0,0.220914 0.17909,0.4 0.4,0.4 h 3.2 c 0.22091,0 0.4,0.179086 0.4,0.4 v 23.2 c 0,0.22091 -0.17909,0.4 -0.4,0.4 z m -24,0 h -3.2 c -0.22091,0 -0.4,-0.17909 -0.4,-0.4 v -3.2 c 0,-0.22091 0.17909,-0.4 0.4,-0.4 h 3.2 c 0.22091,0 0.4,0.17909 0.4,0.4 v 3.2 c 0,0.22091 -0.17909,0.4 -0.4,0.4 z m -24,0 H 76 v -3.6 c 0,-0.22091 -0.179086,-0.4 -0.4,-0.4 h -7.2 c -0.220914,0 -0.4,-0.17909 -0.4,-0.4 v -3.2 C 68,100.17909 67.820914,100 67.6,100 H 64.4 C 64.179086,100 64,99.820914 64,99.6 V 96 h 3.6 C 67.820914,96 68,95.820914 68,95.6 V 92.4 C 68,92.179086 67.820914,92 67.6,92 H 64.4 C 64.179086,92 64,92.179086 64,92.4 V 96 H 60.4 C 60.179086,96 60,95.820914 60,95.6 V 92.4 C 60,92.179086 59.820914,92 59.6,92 H 56.4 C 56.179086,92 56,92.179086 56,92.4 v 3.2 C 56,95.820914 55.820914,96 55.6,96 H 52 V 84 h 3.6 c 0.220914,0 0.4,0.179086 0.4,0.4 v 3.2 c 0,0.220914 0.179086,0.4 0.4,0.4 h 7.2 C 63.820914,88 64,87.820914 64,87.6 V 84 h 4 v 3.6 c 0,0.220914 0.179086,0.4 0.4,0.4 h 7.2 C 75.820914,88 76,87.820914 76,87.6 V 84 h 4 v 8 H 72.4 C 72.179086,92 72,92.179086 72,92.4 v 7.2 c 0,0.220914 0.179086,0.4 0.4,0.4 H 80 v 3.6 c 0,0.22091 0.179086,0.4 0.4,0.4 H 84 v 4 z m -24,0 H 56 v -4 h 3.6 c 0.220914,0 0.4,0.17909 0.4,0.4 v 3.2 c 0,0.22091 -0.179086,0.4 -0.4,0.4 z m -4,-4 h -7.2 c -0.220914,0 -0.4,-0.17909 -0.4,-0.4 v -3.2 C 48,100.17909 47.820914,100 47.6,100 H 36.4 C 36.179086,100 36,99.820914 36,99.6 V 96.4 C 36,96.179086 35.820914,96 35.6,96 H 32.4 C 32.179086,96 32,95.820914 32,95.6 V 92 h 3.6 C 35.820914,92 36,91.820914 36,91.6 V 88.4 C 36,88.179086 35.820914,88 35.6,88 H 32 V 80.4 C 32,80.179086 32.179086,80 32.4,80 h 3.2 c 0.220914,0 0.4,0.179086 0.4,0.4 v 3.2 c 0,0.220914 0.179086,0.4 0.4,0.4 H 40 v 3.6 c 0,0.220914 0.179086,0.4 0.4,0.4 h 3.2 c 0.220914,0 0.4,0.179086 0.4,0.4 V 92 H 40.4 C 40.179086,92 40,92.179086 40,92.4 v 3.2 c 0,0.220914 0.179086,0.4 0.4,0.4 h 3.2 C 43.820914,96 44,95.820914 44,95.6 V 92 h 3.6 c 0.220914,0 0.4,0.179086 0.4,0.4 v 3.2 c 0,0.220914 0.179086,0.4 0.4,0.4 H 52 v 3.6 c 0,0.220914 0.179086,0.4 0.4,0.4 h 3.2 c 0.220914,0 0.4,0.17909 0.4,0.4 v 3.6 z m -32,-4 H 16.4 C 16.179086,100 16,99.820914 16,99.6 V 96.4 C 16,96.179086 16.179086,96 16.4,96 h 7.2 c 0.220914,0 0.4,0.179086 0.4,0.4 v 3.2 c 0,0.220914 -0.179086,0.4 -0.4,0.4 z m 100,-8 h -3.2 C 120.17909,92 120,91.820914 120,91.6 V 88 h 4 v 4 z m -32,0 H 88 V 88.4 C 88,88.179086 87.820914,88 87.6,88 H 84.4 C 84.179086,88 84,87.820914 84,87.6 V 84.4 C 84,84.179086 83.820914,84 83.6,84 H 80 v -4 h 3.6 C 83.820914,80 84,79.820914 84,79.6 V 72.4 C 84,72.179086 84.179086,72 84.4,72 h 3.2 C 87.820914,72 88,71.820914 88,71.6 V 68 h 4 v 7.6 c 0,0.220914 0.179086,0.4 0.4,0.4 h 7.2 c 0.220914,0 0.4,-0.179086 0.4,-0.4 V 72.4 C 100,72.179086 99.820914,72 99.6,72 H 96.4 C 96.179086,72 96,71.820914 96,71.6 V 68 h 3.6 c 0.220914,0 0.4,-0.179086 0.4,-0.4 V 64 h 3.6 c 0.22091,0 0.4,0.179086 0.4,0.4 v 3.2 c 0,0.220914 0.17909,0.4 0.4,0.4 h 3.2 c 0.22091,0 0.4,0.179086 0.4,0.4 V 76 h -3.6 c -0.22091,0 -0.4,0.179086 -0.4,0.4 V 84 h -3.6 c -0.22091,0 -0.4,0.179086 -0.4,0.4 v 3.2 c 0,0.220914 -0.179086,0.4 -0.4,0.4 H 96.4 C 96.179086,88 96,87.820914 96,87.6 V 80.4 C 96,80.179086 95.820914,80 95.6,80 H 88.4 C 88.179086,80 88,80.179086 88,80.4 v 3.2 c 0,0.220914 0.179086,0.4 0.4,0.4 h 3.2 c 0.220914,0 0.4,0.179086 0.4,0.4 v 7.2 c 0,0.220914 -0.179086,0.4 -0.4,0.4 z m -60,0 H 24.4 C 24.179086,92 24,91.820914 24,91.6 V 80.4 C 24,80.179086 23.820914,80 23.6,80 H 16.4 C 16.179086,80 16,79.820914 16,79.6 V 64.4 C 16,64.179086 16.179086,64 16.4,64 H 28 v 7.6 c 0,0.220914 0.179086,0.4 0.4,0.4 h 3.2 c 0.220914,0 0.4,0.179086 0.4,0.4 v 3.2 C 32,75.820914 31.820914,76 31.6,76 H 28.4 C 28.179086,76 28,76.179086 28,76.4 v 11.2 c 0,0.220914 0.179086,0.4 0.4,0.4 H 32 v 4 z m -12,-4 H 16.4 C 16.179086,88 16,87.820914 16,87.6 V 84.4 C 16,84.179086 16.179086,84 16.4,84 h 3.2 c 0.220914,0 0.4,0.179086 0.4,0.4 v 3.2 c 0,0.220914 -0.179086,0.4 -0.4,0.4 z m 56,-4 H 68 v -4 h 3.6 C 71.820914,80 72,79.820914 72,79.6 V 76.4 C 72,76.179086 72.179086,76 72.4,76 h 3.2 C 75.820914,76 76,75.820914 76,75.6 V 72.4 C 76,72.179086 75.820914,72 75.6,72 H 68.4 C 68.179086,72 68,71.820914 68,71.6 V 68.4 C 68,68.179086 67.820914,68 67.6,68 H 64.4 C 64.179086,68 64,67.820914 64,67.6 V 64 h 3.6 C 67.820914,64 68,63.820914 68,63.6 V 60.4 C 68,60.179086 67.820914,60 67.6,60 H 64.4 C 64.179086,60 64,60.179086 64,60.4 V 64 H 60.4 C 60.179086,64 60,64.179086 60,64.4 v 3.2 C 60,67.820914 59.820914,68 59.6,68 H 56 V 60.4 C 56,60.179086 56.179086,60 56.4,60 h 3.2 C 59.820914,60 60,59.820914 60,59.6 V 56 h 3.6 C 63.820914,56 64,55.820914 64,55.6 V 52 h 4 v 3.6 c 0,0.220914 0.179086,0.4 0.4,0.4 h 3.2 C 71.820914,56 72,55.820914 72,55.6 V 52.4 C 72,52.179086 71.820914,52 71.6,52 H 68 v -4 h 3.6 C 71.820914,48 72,47.820914 72,47.6 V 40.4 C 72,40.179086 71.820914,40 71.6,40 H 68.4 C 68.179086,40 68,40.179086 68,40.4 V 48 H 64 V 40.4 C 64,40.179086 63.820914,40 63.6,40 H 60 V 36.4 C 60,36.179086 60.179086,36 60.4,36 H 76 v 15.6 c 0,0.220914 0.179086,0.4 0.4,0.4 H 80 V 64 H 76.4 C 76.179086,64 76,63.820914 76,63.6 V 60.4 C 76,60.179086 75.820914,60 75.6,60 H 72.4 C 72.179086,60 72,60.179086 72,60.4 v 7.2 c 0,0.220914 0.179086,0.4 0.4,0.4 H 80 V 80 H 76.4 C 76.179086,80 76,80.179086 76,80.4 V 84 Z m -12,0 H 60.4 C 60.179086,84 60,83.820914 60,83.6 V 80 h 4 v 4 z m -12,0 H 48.4 C 48.179086,84 48,83.820914 48,83.6 V 80.4 C 48,80.179086 48.179086,80 48.4,80 h 3.2 c 0.220914,0 0.4,0.179086 0.4,0.4 V 84 Z m -8,0 H 40 V 80.4 C 40,80.179086 40.179086,80 40.4,80 h 3.2 c 0.220914,0 0.4,0.179086 0.4,0.4 v 3.2 c 0,0.220914 -0.179086,0.4 -0.4,0.4 z m 72,-4 h -7.2 C 108.17909,80 108,79.820914 108,79.6 V 76 h 8 v 3.6 c 0,0.220914 -0.17909,0.4 -0.4,0.4 z m -48,0 H 64 V 76.4 C 64,76.179086 64.179086,76 64.4,76 h 3.2 c 0.220914,0 0.4,0.179086 0.4,0.4 V 80 Z m -8,0 H 56.4 C 56.179086,80 56,79.820914 56,79.6 V 72 h 3.6 c 0.220914,0 0.4,0.179086 0.4,0.4 V 80 Z m -12,-4 H 40.4 C 40.179086,76 40,75.820914 40,75.6 V 72 h 8 v 3.6 c 0,0.220914 -0.179086,0.4 -0.4,0.4 z m 8,-4 H 48 V 64.4 C 48,64.179086 48.179086,64 48.4,64 h 3.2 c 0.220914,0 0.4,0.179086 0.4,0.4 v 3.2 c 0,0.220914 0.179086,0.4 0.4,0.4 H 56 v 4 z m -16,0 H 36.4 C 36.179086,72 36,71.820914 36,71.6 V 64.4 C 36,64.179086 35.820914,64 35.6,64 H 28 V 60.4 C 28,60.179086 28.179086,60 28.4,60 H 40 v 3.6 c 0,0.220914 0.179086,0.4 0.4,0.4 h 3.2 c 0.220914,0 0.4,0.179086 0.4,0.4 v 3.2 C 44,67.820914 43.820914,68 43.6,68 H 40.4 C 40.179086,68 40,68.179086 40,68.4 V 72 Z m 56,-4 H 92 V 64.4 C 92,64.179086 92.179086,64 92.4,64 H 96 v 4 z m -8,0 H 80 v -4 h 3.6 C 83.820914,64 84,63.820914 84,63.6 V 60.4 C 84,60.179086 84.179086,60 84.4,60 h 3.2 c 0.220914,0 0.4,0.179086 0.4,0.4 V 68 Z m 12,-4 H 96 V 52 h 3.6 c 0.220914,0 0.4,0.179086 0.4,0.4 V 64 Z m -52,-4 H 40 v -4 h 8 v 3.6 c 0,0.220914 -0.179086,0.4 -0.4,0.4 z m -24,0 H 16.4 C 16.179086,60 16,59.820914 16,59.6 V 48.4 C 16,48.179086 16.179086,48 16.4,48 h 7.2 c 0.220914,0 0.4,0.179086 0.4,0.4 v 3.2 c 0,0.220914 0.179086,0.4 0.4,0.4 h 7.2 C 31.820914,52 32,51.820914 32,51.6 V 48.4 C 32,48.179086 32.179086,48 32.4,48 h 11.2 c 0.220914,0 0.4,0.179086 0.4,0.4 v 3.2 C 44,51.820914 43.820914,52 43.6,52 H 40.4 C 40.179086,52 40,52.179086 40,52.4 V 56 H 24.4 C 24.179086,56 24,56.179086 24,56.4 v 3.2 c 0,0.220914 -0.179086,0.4 -0.4,0.4 z m 64,-4 H 84.4 C 84.179086,56 84,55.820914 84,55.6 V 52.4 C 84,52.179086 83.820914,52 83.6,52 H 80 V 48.4 C 80,48.179086 80.179086,48 80.4,48 h 3.2 C 83.820914,48 84,47.820914 84,47.6 V 44 h 3.6 C 87.820914,44 88,43.820914 88,43.6 V 40 h 4 v 3.6 c 0,0.220914 0.179086,0.4 0.4,0.4 H 96 v 8 H 92.4 C 92.179086,52 92,51.820914 92,51.6 V 48.4 C 92,48.179086 91.820914,48 91.6,48 H 88.4 C 88.179086,48 88,48.179086 88,48.4 v 7.2 c 0,0.220914 -0.179086,0.4 -0.4,0.4 z m -28,0 H 48 V 52.4 C 48,52.179086 48.179086,52 48.4,52 H 60 v 4 z m 4,-4 H 60 V 48.4 C 60,48.179086 60.179086,48 60.4,48 H 64 v 4 z m -8,-4 H 52.4 C 52.179086,48 52,47.820914 52,47.6 V 44 h 4 v 3.6 c 0,0.220914 -0.179086,0.4 -0.4,0.4 z m 76,-4 H 104.4 C 104.17909,44 104,43.820914 104,43.6 V 16.4 c 0,-0.220914 0.17909,-0.4 0.4,-0.4 h 27.2 c 0.22091,0 0.4,0.179086 0.4,0.4 v 27.2 c 0,0.220914 -0.17909,0.4 -0.4,0.4 z m -32,0 H 96 V 40.4 C 96,40.179086 95.820914,40 95.6,40 H 92 v -4 h 3.6 C 95.820914,36 96,35.820914 96,35.6 V 32.4 C 96,32.179086 95.820914,32 95.6,32 H 92 v -4 h 7.6 c 0.220914,0 0.4,0.179086 0.4,0.4 v 15.2 c 0,0.220914 -0.179086,0.4 -0.4,0.4 z m -16,0 H 80.4 C 80.179086,44 80,43.820914 80,43.6 V 36 h 3.6 C 83.820914,36 84,35.820914 84,35.6 V 32.4 C 84,32.179086 84.179086,32 84.4,32 H 92 v 4 H 88.4 C 88.179086,36 88,36.179086 88,36.4 V 40 H 84.4 C 84.179086,40 84,40.179086 84,40.4 V 44 Z m -24,0 H 56 V 40.4 C 56,40.179086 56.179086,40 56.4,40 H 60 v 3.6 c 0,0.220914 -0.179086,0.4 -0.4,0.4 z m -8,0 H 48.4 C 48.179086,44 48,43.820914 48,43.6 V 36.4 C 48,36.179086 48.179086,36 48.4,36 h 3.2 c 0.220914,0 0.4,0.179086 0.4,0.4 V 44 Z m -8,0 H 16.4 C 16.179086,44 16,43.820914 16,43.6 V 16.4 C 16,16.179086 16.179086,16 16.4,16 h 27.2 c 0.220914,0 0.4,0.179086 0.4,0.4 V 43.6 C 44,43.820914 43.820914,44 43.6,44 Z M 128,39.6 V 20.4 c 0,-0.220914 -0.17909,-0.4 -0.4,-0.4 h -19.2 c -0.22091,0 -0.4,0.179086 -0.4,0.4 v 19.2 c 0,0.220914 0.17909,0.4 0.4,0.4 h 19.2 c 0.22091,0 0.4,-0.179086 0.4,-0.4 z m -88,0 V 20.4 C 40,20.179086 39.820914,20 39.6,20 H 20.4 C 20.179086,20 20,20.179086 20,20.4 v 19.2 c 0,0.220914 0.179086,0.4 0.4,0.4 H 39.6 C 39.820914,40 40,39.820914 40,39.6 Z M 123.6,36 H 112.4 C 112.17909,36 112,35.820914 112,35.6 V 24.4 c 0,-0.220914 0.17909,-0.4 0.4,-0.4 h 11.2 c 0.22091,0 0.4,0.179086 0.4,0.4 v 11.2 c 0,0.220914 -0.17909,0.4 -0.4,0.4 z m -44,0 H 76 V 28.4 C 76,28.179086 75.820914,28 75.6,28 H 72 V 24.4 C 72,24.179086 71.820914,24 71.6,24 H 68.4 C 68.179086,24 68,23.820914 68,23.6 V 20 h 8 v 3.6 c 0,0.220914 0.179086,0.4 0.4,0.4 h 3.2 C 79.820914,24 80,23.820914 80,23.6 V 20 h 3.6 c 0.220914,0 0.4,0.179086 0.4,0.4 v 3.2 c 0,0.220914 0.179086,0.4 0.4,0.4 h 3.2 C 87.820914,24 88,23.820914 88,23.6 V 20.4 C 88,20.179086 88.179086,20 88.4,20 h 7.2 C 95.820914,20 96,19.820914 96,19.6 V 16.4 C 96,16.179086 96.179086,16 96.4,16 h 3.2 c 0.220914,0 0.4,0.179086 0.4,0.4 v 7.2 c 0,0.220914 -0.179086,0.4 -0.4,0.4 H 92.4 C 92.179086,24 92,24.179086 92,24.4 V 28 H 80.4 C 80.179086,28 80,28.179086 80,28.4 V 36 Z m -44,0 H 24.4 C 24.179086,36 24,35.820914 24,35.6 V 24.4 C 24,24.179086 24.179086,24 24.4,24 h 11.2 c 0.220914,0 0.4,0.179086 0.4,0.4 v 11.2 c 0,0.220914 -0.179086,0.4 -0.4,0.4 z m 36,-4 H 68.4 C 68.179086,32 68,31.820914 68,31.6 V 28.4 C 68,28.179086 68.179086,28 68.4,28 H 72 v 3.6 c 0,0.220914 -0.179086,0.4 -0.4,0.4 z m -8,0 H 60.4 C 60.179086,32 60,31.820914 60,31.6 V 28.4 C 60,28.179086 59.820914,28 59.6,28 H 56 V 24.4 C 56,24.179086 55.820914,24 55.6,24 H 52.4 C 52.179086,24 52,24.179086 52,24.4 v 3.2 c 0,0.220914 0.179086,0.4 0.4,0.4 H 56 v 3.6 C 56,31.820914 55.820914,32 55.6,32 H 48.4 C 48.179086,32 48,31.820914 48,31.6 V 16.4 C 48,16.179086 48.179086,16 48.4,16 h 11.2 c 0.220914,0 0.4,0.179086 0.4,0.4 v 7.2 c 0,0.220914 0.179086,0.4 0.4,0.4 h 3.2 c 0.220914,0 0.4,0.179086 0.4,0.4 v 7.2 c 0,0.220914 -0.179086,0.4 -0.4,0.4 z m 16,-12 H 76 V 16.4 C 76,16.179086 76.179086,16 76.4,16 h 3.2 c 0.220914,0 0.4,0.179086 0.4,0.4 V 20 Z m -12,0 H 64.4 C 64.179086,20 64,19.820914 64,19.6 V 16.4 C 64,16.179086 64.179086,16 64.4,16 h 3.2 c 0.220914,0 0.4,0.179086 0.4,0.4 V 20 Z"
         id="path273"
         style="fill:#1a1a1a;fill-opacity:1" />
    </g>
  </g>
</svg>
