<?xml version="1.0" encoding="UTF-8" standalone="no"?>
<!-- Created with Inkscape (http://www.inkscape.org/) -->

<svg
   width="45.781208mm"
   height="16.498787mm"
   viewBox="0 0 45.781207 16.498787"
   version="1.1"
   id="svg5"
   inkscape:version="1.2.2 (b0a8486541, 2022-12-01)"
   sodipodi:docname="ubc.svg"
   xml:space="preserve"
   xmlns:inkscape="http://www.inkscape.org/namespaces/inkscape"
   xmlns:sodipodi="http://sodipodi.sourceforge.net/DTD/sodipodi-0.dtd"
   xmlns="http://www.w3.org/2000/svg"
   xmlns:svg="http://www.w3.org/2000/svg"><sodipodi:namedview
     id="namedview7"
     pagecolor="#ffffff"
     bordercolor="#000000"
     borderopacity="0.25"
     inkscape:showpageshadow="2"
     inkscape:pageopacity="0.0"
     inkscape:pagecheckerboard="0"
     inkscape:deskcolor="#d1d1d1"
     inkscape:document-units="mm"
     showgrid="false"
     inkscape:zoom="1"
     inkscape:cx="196"
     inkscape:cy="171.5"
     inkscape:window-width="1920"
     inkscape:window-height="1011"
     inkscape:window-x="0"
     inkscape:window-y="32"
     inkscape:window-maximized="1"
     inkscape:current-layer="layer1" /><defs
     id="defs2" /><g
     inkscape:label="Layer 1"
     inkscape:groupmode="layer"
     id="layer1"
     transform="translate(585.66155,32.551382)"><path
       d="m -580.29863,-16.163739 c -2.53829,-0.48125 -4.31057,-1.91919 -4.98094,-4.041259 -0.32884,-1.040951 -0.38198,-2.047561 -0.38198,-7.235051 v -4.85936 h 1.90085 1.90085 l 0.0271,5.2705 c 0.0268,5.21005 0.0293,5.27701 0.21812,5.83843 0.47535,1.413181 1.57594,2.129261 3.27677,2.131971 1.9136,0.003 3.11759,-0.89709 3.42855,-2.563291 0.0511,-0.27361 0.0851,-2.50064 0.0851,-5.56683 v -5.11078 h 1.90844 1.90843 l -0.0272,5.56683 c -0.0304,6.23762 -0.004,5.95405 -0.6672,7.279981 -0.77943,1.559309 -2.2045,2.631629 -4.21649,3.172769 -0.8332,0.2241 -3.44561,0.29333 -4.38044,0.11609 z m 33.45675,0.0605 c -0.62995,-0.0855 -1.66679,-0.37528 -2.30165,-0.64328 -1.84135,-0.7773 -3.29846,-2.2703 -4.03588,-4.13528 -0.43819,-1.10819 -0.51445,-1.59923 -0.5175,-3.33192 -0.003,-1.89491 0.13907,-2.63028 0.7542,-3.89467 1.16798,-2.400749 3.28224,-3.88824 6.14316,-4.32204 1.61765,-0.24529 3.53982,-0.1116 4.99568,0.34746 0.88305,0.27844 1.69299,0.67743 1.69299,0.83401 0,0.15073 -0.51391,3.13236 -0.5453,3.16375 -0.0131,0.0131 -0.30456,-0.14931 -0.64772,-0.36088 -1.18161,-0.72852 -2.38084,-1.08324 -3.67532,-1.08715 -2.49458,-0.008 -4.15482,1.26125 -4.74499,3.62618 -0.3295,1.320401 -0.14105,3.20544 0.44192,4.42018 0.31016,0.64631 1.26503,1.603051 1.90756,1.911311 1.791,0.859239 4.19489,0.639889 6.39425,-0.58345 0.29007,-0.161341 0.55587,-0.293451 0.59067,-0.293561 0.11285,-3.4e-4 0.59586,2.96746 0.49595,3.04738 -0.50201,0.40158 -2.25982,1.03103 -3.42811,1.22756 -0.73968,0.12442 -2.82636,0.16853 -3.51991,0.0744 z m -21.03967,-8.19524 v -8.001 h 3.07139 c 3.93726,0 4.83235,0.10597 6.12905,0.72562 1.54521,0.7384 2.31802,2.07025 2.20733,3.80405 -0.0727,1.13816 -0.67032,2.12158 -1.64248,2.702631 l -0.41376,0.2473 0.64317,0.32191 c 0.77964,0.390229 1.50845,1.114449 1.83821,1.826679 0.18993,0.4102 0.23197,0.63535 0.25957,1.39019 0.0372,1.01807 -0.0547,1.563741 -0.38054,2.25925 -0.31866,0.68016 -1.17443,1.49822 -1.9775,1.89035 -1.47094,0.71825 -2.3643,0.83288 -6.49594,0.83352 l -3.2385,5e-4 z m 7.06967,5.038681 c 0.62333,-0.23985 1.17102,-0.75677 1.30211,-1.228961 0.25286,-0.91084 -0.0375,-1.80858 -0.72632,-2.2455 -0.66622,-0.42259 -1.12138,-0.52268 -2.58663,-0.56881 l -1.3335,-0.042 v 2.17889 2.17888 l 1.41817,-0.0385 c 1.21973,-0.0331 1.48925,-0.0659 1.92617,-0.233999 z m -0.59267,-6.815981 c 0.51358,-0.17605 0.9335,-0.4809 1.14778,-0.83325 0.37898,-0.62318 0.27448,-1.55265 -0.22961,-2.04221 -0.4432,-0.43043 -0.98925,-0.5698 -2.421,-0.6179 l -1.24884,-0.042 v 1.88498 1.88499 l 1.16417,-0.0448 c 0.77353,-0.0297 1.30621,-0.0935 1.5875,-0.18988 z"
       style="fill:#f9f9f9;fill-opacity:1;stroke-width:0.0846667"
       id="path392" /></g></svg>
